<?xml version="1.0" encoding="utf-8"?>
<!-- Generator: Adobe Illustrator 24.1.2, SVG Export Plug-In . SVG Version: 6.00 Build 0)  -->
<svg version="1.1" id="Layer_1" xmlns="http://www.w3.org/2000/svg" xmlns:xlink="http://www.w3.org/1999/xlink" x="0px" y="0px"
	 viewBox="0 0 2000 2000" style="enable-background:new 0 0 2000 2000;" xml:space="preserve">
<style type="text/css">
	.st0{fill:#232323;}
	.st1{fill:#FFFFFF;}
</style>
<rect class="st0" width="2000" height="2000"/>
<g>
	<path class="st1" d="M1091.69,1370.79c-3.39,0-1.15,7.98,3.11,10.88c4.45,3.04,7.45,2.24,4.58-1.26
		c-1.43-1.75-3.47-9.83-4.44-17.95c-1.01-8.11-2.94-14.72-4.27-14.72c-1.36,0-1.82-2.07-1.01-4.59c0.81-2.52-1.82-14.76-5.84-27.22
		c-6.79-20.92-11.54-28.55-16.09-25.75c-2.62,1.65,5.71,21.58,9.03,21.65c1.58,0.04,1.29,1.05-0.64,2.24
		c-2.59,1.64-2.79,3.5-0.8,7.21c1.47,2.76,3.07,7.84,3.53,11.22c0.49,3.43,1.61,7.39,2.49,8.82c0.9,1.43,2.45,7.17,3.42,12.81
		c0.99,5.62,3.65,11.68,5.85,13.46C1092.9,1369.42,1093.36,1370.79,1091.69,1370.79z"/>
	<path class="st1" d="M1045.02,1506.48c1.33-4.58,1.08-7.49-0.7-8.08c-1.54-0.53-3.15-5.49-3.61-11.05
		c-2.3-28.27-3.36-39.22-4.65-48.59c-3.25-22.88-6.51-52.34-7.7-69.24c-0.41-5.63-1.01-10.84-1.36-11.54
		c-0.35-0.7-0.98-8.22-1.43-16.68c-0.46-8.46-1.36-18.26-2.03-21.8c-0.7-3.53-1.33-10.14-1.47-14.72c-0.13-5.85-1.43-8.37-4.26-8.37
		c-3.47,0-3.82,2.31-2.42,14.77c2.1,18.43,8.29,82.73,10.42,108.37c0.91,10.57,2,22.67,2.42,26.9c0.42,4.24,1.47,18.68,2.35,32.08
		c0.9,13.4,2.79,34.18,4.26,46.18c2.52,20.61,4.13,36.73,4.72,46.81c0.18,2.7,2.31,4.48,5.39,4.48c5.98,0,6.26-3.18,2.42-29.49
		C1043.06,1516.94,1042.89,1513.97,1045.02,1506.48z"/>
	<path class="st1" d="M1097.45,1561.9c-0.66-5.67-2.31-14.31-3.64-19.24c-2.86-10.46-4.83-20.74-6.4-33.48
		c-0.63-5.01-2.48-16.55-4.16-25.64c-1.64-9.1-3.56-20.88-4.23-26.17c-0.7-5.28-2.42-9.62-3.85-9.62c-1.4,0-1.85-1.85-0.98-4.13
		c0.87-2.27,0.24-8.88-1.37-14.73c-1.64-5.84-2.76-14.52-2.52-19.27c0.28-4.72-1.36-15.01-3.64-22.81
		c-2.28-7.84-4.66-19.52-5.28-26.02c-0.63-6.47-3.71-23.65-6.86-38.13c-4.41-20.19-6.61-26.17-9.58-25.54
		c-2.17,0.46-3.54,2.97-3.12,5.81c2.59,18.3,10.36,56.04,12.99,63.15c1.22,3.32,1.71,7.45,1.12,9.23
		c-0.64,1.75,0.21,9.27,1.89,16.65c1.64,7.42,3.53,17.53,4.12,22.46c0.64,4.93,2.84,17.03,4.9,26.94
		c2.07,9.86,4.79,24.87,6.05,33.33c2.52,16.62,4.13,24.22,7.03,32.88c2.1,6.37,2.14,6.65,5.74,32.5
		c3.43,24.49,12.24,74.52,15.99,90.58c2.13,9.09,3.95,12.1,7.03,11.51c4.93-0.95,5.08-10.77,0.39-27.67
		C1103.65,1594.95,1098.72,1572.63,1097.45,1561.9z"/>
	<path class="st1" d="M1000.35,1389.29c-0.29-96.62-0.36-98.16-5.39-97.45c-5.07,0.73-5.14,2.34-4.2,130.27
		c0.53,71.23,1.23,138.18,1.58,148.75c0.35,10.59,0.81,32.88,0.98,49.57c0.32,26.97,0.84,30.23,4.69,29.49
		c3.99-0.77,4.26-7.42,3.49-81.61C1001.05,1523.87,1000.52,1443.31,1000.35,1389.29z"/>
	<path class="st1" d="M1141.26,1521.56c-2.03-8.85-6.16-24.17-9.17-34.07c-3-9.86-5.73-19.66-6.04-21.79
		c-0.31-2.1-1.93-6.72-3.54-10.25c-1.64-3.53-6.61-20.46-11.02-37.6c-6.51-25.05-9.06-31.45-13.15-32.5
		c-3.92-1.05-4.66-0.38-3.32,2.97c0.94,2.35,2.13,6.61,2.62,9.41c2.24,12.8,3.08,15.18,5.73,16.06c1.58,0.52,2.27,2.45,1.61,4.23
		c-1.93,5.01,14.77,65.88,19.8,72.28c1.23,1.57,1.65,3.39,0.91,4.09c-0.7,0.7,2.2,12.98,6.43,27.25c4.27,14.3,7.74,28.23,7.74,30.99
		c0,2.72,1.43,5.49,3.22,6.08c4.2,1.47,9.62-0.59,9.62-3.64c0-1.33-1.75-5.8-3.88-9.9
		C1146.67,1541.05,1143.28,1530.44,1141.26,1521.56z"/>
	<path class="st1" d="M1414.29,1121.85c17.63,4.27,51.11,12.88,74.38,19.14c48.73,13.08,52.01,13.57,50.83,7.31
		c-0.53-2.83-3.71-4.79-8.54-5.35c-4.2-0.49-8.82-1.83-10.22-2.98c-1.43-1.15-7.21-2.9-12.84-3.91c-5.63-0.98-21.23-4.72-34.63-8.29
		c-13.4-3.6-27.81-6.99-32.04-7.59c-4.24-0.6-10-2.14-12.84-3.39c-7.58-3.47-43.97-12.73-49.95-12.73c-6.37,0-6.89,6.85-0.7,8.7
		C1380.22,1113.48,1396.66,1117.58,1414.29,1121.85z"/>
	<path class="st1" d="M830.22,654.07c-5.1-1.96-6.89-0.18-4.96,4.9c0.84,2.17,3.84,3.95,6.65,3.95
		C837.85,662.91,836.62,656.51,830.22,654.07z"/>
	<path class="st1" d="M774.36,442.21c0.95,4.34,3.92,9.06,6.61,10.5c2.73,1.43,4.93,4.03,4.9,5.74c-0.04,1.96-0.98,1.71-2.52-0.73
		c-2.2-3.39-2.48-3.39-2.52,0c-0.04,7.56,11.79,38.62,13.95,36.63c1.23-1.08,1.47-0.7,0.56,0.87c-1.43,2.53,3.25,17.95,12.35,40.76
		c1.71,4.24,4.51,11.45,6.3,16.02c1.75,4.59,4.24,8.33,5.49,8.33c1.3,0,2.2,0.88,2.03,1.93c-0.18,1.05-0.04,2.79,0.31,3.84
		c0.35,1.06,0.77,2.8,0.98,3.85c0.18,1.05,2.59,9.73,5.32,19.25c3.36,11.75,6.26,17.35,8.96,17.35c3.43,0.04,3.47,0.35,0.21,2.42
		c-3.33,2.1-3.33,2.59,0.06,3.88c2.14,0.81,4.09,4.02,4.31,7.14c0.24,3.12,2.45,7.14,4.9,8.92c2.69,1.96,3.18,3.25,1.22,3.25
		c-3.49,0-2.83,3.78,3.89,22.46c2.77,7.67,5.36,10.88,8.81,10.88c6.33,0,6.27-1.29-1.82-23.09c-4.72-12.7-7.84-17.8-10.28-16.9
		c-1.93,0.77-3.5,0.25-3.5-1.12c0-1.36,1.12-2.48,2.49-2.48c1.33,0,0.31-4.9-2.27-10.92c-2.62-5.98-5.74-10.7-6.97-10.5
		c-1.22,0.25-2.34-4.72-2.52-11.01c-0.24-7.52-2.1-13.4-5.45-17.11c-2.84-3.08-4.62-7-3.99-8.71c0.64-1.71-0.59-6.9-2.69-11.54
		c-2.1-4.66-6.44-15.95-9.66-25.12c-3.22-9.16-6.47-17.25-7.24-17.95c-0.81-0.7-1.78-3.6-2.24-6.43
		c-1.82-11.79-12.21-34.64-15.85-34.81c-2.17-0.11-2.59-0.73-0.94-1.4c3.78-1.54-1.01-21.41-5.56-23.16
		c-1.76-0.67-2.62-3.47-1.89-6.2c0.7-2.72,0.17-4.96-1.16-4.96c-1.33,0-2.45-1.54-2.45-3.43c0-5.21-11.22-27.36-13.88-27.36
		c-3.3,0-3.12,0.81,3.84,17.88C769.84,427.56,773.38,437.91,774.36,442.21z"/>
	<path class="st1" d="M873.12,413.49c0,0.35,2.02,0.67,4.48,0.67c3.32,0.04,3.64,0.59,1.18,2.13c-2.34,1.5-2.79,5.32-1.57,12.98
		c0.98,6.02,1.99,12.84,2.27,15.18c1.23,9.91,4.69,20.96,6.55,20.96c1.08,0,1.36,2.45,0.59,5.43c-0.83,3.14,0.07,6.3,2.18,7.62
		c2.76,1.79,2.79,2.31,0.21,2.31c-1.85,0.04-2.62,1.23-1.71,2.7c0.87,1.47,2.17,8.68,2.79,16.02c0.63,7.38,2.2,16.86,3.47,21.09
		c1.25,4.24,3.04,14.03,3.95,21.8c1.93,16.13,6.44,31.2,10.22,33.9c4.75,3.39,4.2-14.17-1.26-40.3
		c-2.94-14.13-5.28-28.93-5.18-32.92c0.07-3.95-0.91-6.57-2.2-5.77c-1.3,0.81-2.97-0.21-3.74-2.2c-0.77-2.03-0.53-4.02,0.59-4.48
		c1.76-0.73-3.14-33.69-9.86-66.23c-1.33-6.33-4.37-21.16-6.82-32.92c-3.85-18.74-8.46-27.14-12.59-22.98
		c-0.63,0.59,0.56,10.84,2.66,22.74C871.4,403.1,873.12,413.14,873.12,413.49z"/>
	<path class="st1" d="M656.68,1134.83c-0.64,0-2.95-0.66-5.15-1.54c-3.07-1.16-7.03,4.73-16.85,25.01
		c-14.03,28.97-21.52,42.57-25.65,46.7c-1.47,1.47-2.66,4.76-2.66,7.28c0,2.55-1.12,4.61-2.44,4.61c-3.6,0-21.13,38.2-19.07,41.53
		c1.3,2.07,75.35,2.38,270.03,1.08c472.69-3.08,547.41-3.91,549.68-6.19c2.59-2.59-4.09-16.2-12.73-25.96
		c-3.14-3.6-5.77-7.45-5.77-8.61c0-1.12-4.02-8.04-8.96-15.35c-4.93-7.35-8.99-14.07-8.99-14.94c0-2.14-25.29-46.18-29.31-51.05
		c-1.76-2.13-7-11.33-11.65-20.46c-4.66-9.13-12.07-22.04-16.44-28.65c-4.41-6.61-14.9-24.39-23.37-39.53
		c-8.46-15.12-17.14-29.45-19.24-31.87c-2.13-2.41-9.58-15.53-16.58-29.18c-6.99-13.6-13.53-24.73-14.48-24.73
		c-0.98,0-3.04-3.19-4.55-7.07c-1.53-3.89-3.91-8.79-5.31-10.88c-8.79-13.4-28.34-48.31-28.34-50.65c0-1.54-0.91-3.19-2.03-3.64
		c-1.16-0.48-6.61-8.78-12.21-18.43c-5.56-9.69-11.27-19.52-12.7-21.87c-1.4-2.34-5.95-10-10.08-17.03
		c-4.13-7.03-9.06-14.31-10.92-16.16c-1.85-1.85-3.36-4.86-3.36-6.65c0-1.75-5.91-12.94-13.15-24.8
		c-7.24-11.87-16.61-27.95-20.81-35.69c-4.2-7.76-10.95-19.07-15.04-25.11c-4.06-6.05-8.08-13.82-8.96-17.32
		c-0.87-3.47-2.34-6.3-3.29-6.3c-0.94,0-4.55-5.49-8.04-12.21c-3.47-6.69-7.67-13.89-9.3-16.03c-1.65-2.1-8.71-14.23-15.71-26.93
		c-6.97-12.7-18.61-33.45-25.82-46.15c-7.24-12.7-18.05-32.08-24-43.09c-14.87-27.32-16.61-26.73-38.37,13.57
		c-9.51,17.67-18.33,33.27-19.59,34.74c-3.61,4.2-31,51.25-32.99,56.64c-0.94,2.65-5.07,9.73-9.13,15.74
		c-4.1,5.98-9.41,15.22-11.83,20.5c-2.45,5.28-10.18,19.25-17.18,30.96c-7.03,11.76-16.83,29.08-21.82,38.48
		c-12.98,24.59-21.1,38.55-30.4,52.23c-4.48,6.65-9.44,15.85-11.02,20.53c-1.58,4.66-3.99,9.94-5.39,11.76
		c-3.81,4.86-24.91,42.23-24.91,44.12c0,0.87-3.32,6.81-7.34,13.15c-4.03,6.37-13.16,22.71-20.33,36.35
		c-7.14,13.61-16.96,30.85-21.8,38.3c-15.88,24.49-26.65,43.84-44.71,80.25c-9.79,19.77-20.92,40.79-24.66,46.77
		c-7.42,11.72-8.74,18.65-3.64,18.65c1.78,0,8.33-9.83,14.59-21.83c6.26-11.96,12.66-21.79,14.2-21.79c2,0,2.62,9.55,2.03,31.42
		c-0.46,17.28-1.37,32.89-1.96,34.63c-1.37,3.88-33.55,4.51-35.89,0.73c-0.84-1.36,0.28-5.98,2.48-10.29
		C655.97,1138.33,657.27,1134.83,656.68,1134.83z M1369.93,1217.57c1.4-3.82,5.88-4.34,5.88-0.71c0,1.41,3.61,8.4,8.02,15.54
		c4.37,7.14,7.56,13.33,7.03,13.78c-2.62,2.2-14.17,3.64-16.58,2.06C1371.27,1246.29,1367.94,1222.88,1369.93,1217.57z
		 M609.87,1250.27c-6.16,0-11.12-0.88-11.05-1.93c0.1-1.08,2.9-7.14,6.26-13.47c3.32-6.37,7.8-15.29,9.97-19.91
		c2.13-4.58,4.31-8.32,4.83-8.32c0.53,0,1.01,9.82,1.05,21.79l0.11,21.83H609.87z M924.36,1251.25
		c-78.25,0.14-145.98-0.07-150.5-0.48l-8.15-0.81l-0.21-43.45l-0.18-43.44l62.24-0.25c64.44-0.28,82.1,0.07,83.64,1.61
		c0.53,0.49,1.26,18.54,1.65,40.16c0.91,46.81,0.49,43.1,4.79,43.1c4.62,0,6.55-16.2,5.04-42.33c-1.41-23.89-1.41-23.16,0.7-33.97
		l1.6-8.32l33.69-0.42c47.54-0.6,102.15,0.04,103.27,1.19c1.09,1.05,4.34,54.67,4.55,74.58l0.14,12.56L924.36,1251.25z
		 M832.75,991.22c-4.44,0-8.64-0.98-9.38-2.13c-0.7-1.16,5.63-2.17,14.1-2.28c17.53-0.18,20.71-1.82,13.68-6.96
		c-6.33-4.62-4.58-6.2,7.59-7.04c10.04-0.66,15.22-6.12,9.27-9.79c-2.27-1.43-0.63-3.26,5.43-6.02c10.85-5.01,16.3-6.12,17.24-3.61
		c0.42,1.09-0.56,8.29-2.17,16.06c-4.86,23.41-0.81,43.69,14.17,70.5c1.96,3.49,8.53,10.7,14.59,15.95
		c12.39,10.7,9.76,11.82-10.7,4.44c-7.69-2.77-16.65-5.04-19.87-5.04c-6.22,0-8.08-3.95-2.7-5.73c1.96-0.66,0.91-2.31-2.72-4.27
		c-4.27-2.27-6.86-2.37-9.24-0.39c-2.62,2.17-3.07,1.43-2.17-3.39c1.12-5.91,0.73-6.08-10.59-4.83c-7.49,0.84-11.79,0.35-11.79-1.4
		c0-1.5,3.64-3.08,8.11-3.54c4.48-0.45,8.64-2.24,9.21-4.02c0.59-1.82-0.42-2.66-2.38-1.96c-1.85,0.71-5.14,0.14-7.24-1.25
		c-3.39-2.24-3.39-2.84-0.07-4.97c2.06-1.33,2.94-3.21,1.96-4.2c-0.99-1.01-3.43-0.41-5.46,1.26c-2.55,2.13-4.2,2.2-5.38,0.31
		c-1.08-1.78-7.39-2.17-17.81-1.08c-10.84,1.08-16.72,0.7-17.95-1.26c-1.75-2.83,0.39-3.32,17.78-4.19
		c23.12-1.19,22.59-1.05,19.34-4.97c-2.52-3.01-8.15-3.43-29.18-2.2c-30.15,1.75-31.94-1.23-2.73-4.51
		C836.1,996.44,847.96,991.22,832.75,991.22z M967.53,936.72c-0.73-5.28,0.36-5.84,12.67-6.54c8.19-0.49,13.46,0.28,13.46,1.93
		c0,3.77,7.04,3.36,8.37-0.53c1.65-4.76,20.92,6.75,21.9,13.05c0.46,2.77,3.32,5.8,6.44,6.75c3.43,1.05,4.37,2.2,2.42,3.04
		c-5.15,2.1-3.71,7.84,2.34,9.44c4.76,1.23,5.08,2.03,2.18,5.53c-2.6,3.07-2.7,4.79-0.42,7.03c4.68,4.72,3.53,9.31-2,7.87
		c-3.47-0.91-5.45-4.48-6.68-11.93c-0.95-5.88-4.79-14.7-8.5-19.63c-3.71-4.93-6.48-10.17-6.16-11.62c0.38-1.67-7.03-2.48-20.19-2.2
		c-17,0.35-21.69,1.33-25.92,5.56l-5.14,5.15l5.42,1.71c2.97,0.98,5.42,2.66,5.42,3.82c0,1.16,3.19,2.7,7.07,3.49
		c10,2,14.87,14.8,7.9,20.79c-2.72,2.34-4.23,5.35-3.39,6.72c2.87,4.61-12.45,2.55-17.8-2.42c-8.57-7.94-15.42-7.84-16.33,0.21
		c-0.98,8.19-8.19,12.28-8.19,4.61c0-2.76-1.16-5.03-2.59-5.03c-5.32,0-6.51-0.49-10.46-4.06c-2.24-2.03-4.83-2.91-5.78-1.96
		c-2.94,2.97-1.89,6.02,2.14,6.02c4.65,0,4.96,2.97,0.73,7.2c-2.42,2.42-1.75,4.03,3.01,7.39c5.8,4.06,5.87,4.37,1.18,6.19
		c-8.08,3.19-11.33,2.55-11.61-2.2c-0.14-2.45-0.84-9.69-1.54-16.02c-0.73-6.33-1.44-13.58-1.58-16.02
		c-0.35-5.71-0.28-5.74-8.05,2.02c-6.81,6.82-8.11,10.42-4.19,11.87c1.25,0.45,0.66,2.34-1.3,4.16c-3.04,2.8-3.6,0.64-3.6-14.41
		c0-14.17,1.08-19.1,5.45-24.63c2.97-3.78,6.72-6.37,8.33-5.7c1.58,0.67,4.76,1.93,7.03,2.87c2.8,1.12,4.58,0.06,5.45-3.22
		c0.84-3.29,4.42-5.38,10.85-6.43c10.84-1.76,24.46,0.28,24.46,3.64c0,1.25,1.78,2.27,3.98,2.27
		C967.01,942.5,968.06,940.57,967.53,936.72z M1030.89,934.73c1.47-2.35,6.37-1.23,6.37,1.5c0,0.6-1.79,1.12-3.99,1.12
		C1031.06,937.35,1029.97,936.16,1030.89,934.73z M1087.76,959.67c-1.22-9.21,1.96-11.02,10.04-5.7c4.66,3.04,5.74,5.1,3.89,7.34
		c-5.28,6.37,1.08,10.15,14.83,8.82c8.68-0.84,14.62-0.11,17.6,2.13c3.95,3.01,3.5,3.43-4.51,3.64c-4.93,0.14-11.27,1.16-14.06,2.24
		c-4.97,1.96-4.94,2.07,0.49,4.97c3.04,1.64,8.21,3.08,11.47,3.22c4.93,0.21,4.51,0.73-2.42,2.94c-16.26,5.25-7.56,11.54,10.6,7.67
		c6.26-1.33,12.77-1.61,14.41-0.6c1.65,1.02-2.35,2.45-8.88,3.19c-13.25,1.5-15.56,2.79-12.84,7.17c1.26,2.1,7.84,2.62,20.88,1.75
		c13.61-0.91,18.79-0.46,18.09,1.65c-0.53,1.6-6.09,3.25-12.31,3.64c-6.22,0.42-13.08,1.43-15.18,2.31
		c-2.14,0.87-6.44,1.33-9.63,1.01c-3.18-0.31-5.77,0.7-5.77,2.2c0,1.5,0.94,2.73,2.06,2.73c1.15,0,4.34,1.67,7.07,3.71
		c4.51,3.36,3.85,3.6-7.42,2.59c-13.95-1.26-16.09,3.98-2.79,6.89c5.6,1.19,6.19,1.79,2.37,2.31c-2.83,0.38-7.73,0.49-10.91,0.21
		c-3.71-0.32-5.78,0.91-5.78,3.42c0,2.18-1.82,3.96-4.06,3.96c-2.27,0-6.02,2.13-8.36,4.75c-2.52,2.8-12.1,6.4-23.47,8.75
		c-10.59,2.2-21.37,4.86-23.96,5.87c-2.62,1.05,1.08-3.96,8.22-11.09c7.13-7.14,13.71-15.96,14.62-19.59
		c0.91-3.67,2.56-6.65,3.64-6.65s3.39-3.74,5.14-8.33c1.75-4.58,4.9-12.21,6.96-16.93C1091.37,993.81,1091.34,986.36,1087.76,959.67
		z M1147.41,983.53c2.91,0,5.28,0.46,5.28,0.98c0,2.45-7.69,3.67-9.05,1.47C1142.8,984.61,1144.51,983.53,1147.41,983.53z
		 M1164.93,996.33c5.78,0,11.27,1.23,12.21,2.73c1.82,2.97,0.31,5.84-1.89,3.6c-0.73-0.73-5.11-1.82-9.69-2.41
		C1153.26,998.71,1152.83,996.33,1164.93,996.33z M1051.24,1002.98c-1.4-7.39-0.73-9.24,4.09-11.83c5.63-3.04,5.74-2.87,4.02,7.7
		c-0.94,5.95-3.36,14.72-5.35,19.55c-3.43,8.19-6.44,10.5-9.56,7.38c-2.66-2.69,1.19-14.06,4.76-14.06
		C1052.01,1011.72,1052.47,1009.63,1051.24,1002.98z M1072.73,1013.02c0.66,0.63-0.29,2.9-2.07,5.07c-1.78,2.13-2.38,3.89-1.33,3.89
		c1.05,0,0.45,1.75-1.3,3.84c-1.75,2.14-5.38,3.85-8.08,3.85c-4.09,0-4.48-0.84-2.24-5.01
		C1060.69,1019.14,1070.9,1011.2,1072.73,1013.02z M1070.35,991.33c5.91-3.15,8.04,0.7,6.13,10.94c-1.48,7.59-3.3,8.47-7.91,3.82
		C1063.94,1001.48,1064.82,994.3,1070.35,991.33z M1047.19,1038.97c5.98-5.73,7.63-6.33,8.85-3.12c0.84,2.18-0.24,5.71-2.41,7.84
		c-3.29,3.33-13.78,5.71-13.78,3.15C1039.84,1046.39,1043.13,1042.86,1047.19,1038.97z M1077.76,981.29c-0.88,2.62-1.47,2.62-3.12,0
		c-2.13-3.47,0.04-7.38,2.62-4.79C1078.15,977.37,1078.35,979.51,1077.76,981.29z M1063.39,959.14c-2.69-5.84-2.42-6.4,3.14-6.4
		c5.49,0,9.21,4.2,9.21,10.46C1075.74,968.34,1066.11,965.16,1063.39,959.14z M1063.32,946.06c-1.43,0.91-3.39,0.38-4.34-1.16
		c-2.41-3.95,0.91-6.47,4.2-3.18C1065.03,943.54,1065.06,944.98,1063.32,946.06z M1062.2,974.26c0.63,0.63,0.73,3.36,0.28,6.08
		c-0.81,4.69-1.08,4.73-5.45,0.53c-4.27-4.09-4.27-4.55-0.29-6.09C1059.12,973.88,1061.6,973.63,1062.2,974.26z M1053.72,966.56
		c-5.56,2.13-5.45,2.2-6.96-3.56c-1.05-4.09-0.07-5.14,4.83-5.14C1058.56,957.86,1060.09,964.11,1053.72,966.56z M1046.17,950.15
		c-7.52,0-8.47-3.95-1.41-5.8c2.91-0.77,5.57,0.21,6.34,2.27C1052.05,949.07,1050.51,950.15,1046.17,950.15z M1041.52,1036.22
		c0,5.07-5.87,4.72-7.91-0.49c-1.99-5.21-0.77-6.58,4.13-4.72C1039.84,1031.8,1041.52,1034.15,1041.52,1036.22z M992.48,1055.17
		c3.11-5.04,14.65-8.09,16.89-4.44c1.3,2.1,0.46,3.95-2.34,5.07C999.96,1058.6,990.59,1058.22,992.48,1055.17z M1000.06,1070.7
		c-0.87,1.43-2.02,2.59-2.55,2.59c-0.55,0-1.71-1.15-2.55-2.59c-0.88-1.4,0.28-2.55,2.55-2.55
		C999.78,1068.15,1000.94,1069.31,1000.06,1070.7z M1012.9,1065.6c3.14-2.62,3.85-2.45,3.85,0.94c0,2.31-1.75,4.16-3.85,4.16
		c-2.13,0-3.85-0.42-3.85-0.94C1009.05,1069.2,1010.77,1067.34,1012.9,1065.6z M1011.4,1026.49c-0.11,2.65-0.7,3.18-1.47,1.25
		c-1.82-4.51-8.57-3.99-8.57,0.66c0,2.1,1.36,3.85,3.04,3.85c1.68,0,0.81,1.68-1.93,3.74c-5.18,3.92-6.75,4.16-15.21,2.1
		c-6.48-1.53-11.34-5.84-6.65-5.84c2.18,0,2.88-1.93,2-5.28c-1.01-3.95-0.28-5.07,2.9-4.44c2.8,0.56,4.03,2.87,3.5,6.58
		c-0.56,3.88,0.53,5.7,3.36,5.7c2.79,0,3.91-1.82,3.36-5.53c-0.59-4.26,1.23-6.22,8.19-8.78c11.12-4.03,17.95-4.44,17.95-1.08
		c0,1.4-2.31,2.55-5.1,2.55C1013.64,1021.98,1011.54,1023.76,1011.4,1026.49z M976.35,1051.89c2.41-0.99,2.28-1.93-0.56-3.92
		c-3.99-2.77-8.67,1.3-6.15,5.32c1.64,2.7,0.13,2.59-8.22-0.6c-6.72-2.55-6.75-2.76-2.28-7.73c3.67-4.06,6.48-4.72,13.71-3.36
		c11.41,2.13,15.78,6.33,13.96,13.4c-0.81,3.01-2.17,5.32-3.08,5.18C973.16,1058.22,969.84,1054.54,976.35,1051.89z M983.41,1069.13
		c0,2.27-10.39,3.46-11.72,1.33c-0.77-1.26,1.54-2.31,5.15-2.31C980.44,1068.15,983.41,1068.61,983.41,1069.13z M951.26,1044.96
		c2.66,4.31-0.04,3.08-4.83-2.17c-3.39-3.81-3.64-5.18-1.01-6.22c2.7-1.08,2.66-1.85-0.29-3.89c-1.95-1.4-4.85-2.06-6.39-1.5
		c-2.27,0.84-14.35-14.17-14.35-17.84c0-0.56,2.24-1.58,4.97-2.31c5.25-1.36,10.46,6.26,5.42,7.94c-4.93,1.64,0.07,5.6,7.1,5.6
		c8.57,0,15.15,8.78,10.67,14.2C950.95,1040.69,950.36,1043.49,951.26,1044.96z M908.9,1012.95c-1.33-0.84-3.61-0.81-5.01,0.07
		c-1.43,0.87-2.59,0.45-2.59-0.95c0-6.15,9.13-3.98,12.11,2.88c2.69,6.26,2.45,7.86-1.86,12.21c-4.93,4.93-5,4.93-7.69-0.11
		c-2.13-3.95-1.93-5.07,0.95-5.07C909.22,1021.98,912.36,1015.08,908.9,1012.95z M921.92,1031c1.4,0.87,1.08,3.56-0.73,6.5
		c-2.94,4.69-7.03,6.75-7.03,3.54C914.15,1037.08,919.85,1029.74,921.92,1031z M924.05,1041.81c2.17-2.14,5.63-0.14,13.58,7.86
		c5.88,5.96,9.62,10.64,8.36,10.5c-7.59-0.98-10.94-3.18-12.21-7.97c-1.19-4.55-2.03-4.9-5.36-2.14c-3.25,2.73-4.23,2.53-5.6-1.01
		C921.92,1046.68,922.47,1043.42,924.05,1041.81z M959.73,1023.54c0.71,4.73,0.64,4.73-2.2,0.07c-2.24-3.67-2.17-5.28,0.25-6.79
		c4.68-2.9,0.24-8.32-5.6-6.82c-3.57,0.94-5.63-0.46-7.39-5.08c-1.33-3.49-2.41-6.57-2.41-6.85c0-0.25,2.87-0.46,6.4-0.46
		c3.53,0,6.4,0.91,6.4,2.03c0,1.12,4.61,6.54,10.24,12.03c6.55,6.44,9.65,11.48,8.68,14.03c-2.48,6.5-8.68,4.65-8.68-2.66
		c0-4.2-1.15-6.23-3.18-5.49C960.46,1018.16,959.34,1020.86,959.73,1023.54z M953.65,1066.65c0.83-2.2,1.54-4.58,1.54-5.21
		s2.3,0.07,5.14,1.58c2.79,1.54,5.1,3.88,5.1,5.25c0,1.36-3.01,2.44-6.68,2.44C953.72,1070.7,952.45,1069.73,953.65,1066.65z
		 M1026.83,1043c2.72,1.72,4.41,4.03,3.71,5.15c-2.56,4.13-8.68,1.92-8.68-3.08C1021.86,1040.59,1022.56,1040.31,1026.83,1043z
		 M1030.08,1006.09c2.37,2.38,1.71,3.08-3.08,3.08c-4.79,0-5.45-0.7-3.08-3.08C1026.3,1003.68,1027.7,1003.68,1030.08,1006.09z
		 M1032.14,990.45c2.84,0.77,5.11,3.5,5.11,6.2c0,5.56,0.13,5.49-5.78,2.06C1025.18,995.04,1025.68,988.78,1032.14,990.45z
		 M1027,1057.9c2.84-2.83,6.3-5.14,7.69-5.14c4.13,0,2.95,6.99-1.49,8.71C1024.48,1064.79,1021.68,1063.18,1027,1057.9z
		 M903.37,995.46c6.27,1.64,7.74,6.02,2.03,6.02c-2.03,0-4.13,1.43-4.75,3.22c-0.6,1.75-1.93,0.53-3.01-2.77
		C895.29,994.58,896.17,993.57,903.37,995.46z M816.05,1031.56c5.98,3.47,10.88,5.45,10.88,4.37c0-1.05,2.03-0.13,4.51,2.07
		c8.33,7.34,58.74,32.43,71.4,35.51c6.92,1.71,13.75,3.91,15.14,4.93c4.44,3.15,45.51,12.64,61.36,14.14
		c18.92,1.82,56.81-4.41,80.25-13.16c9.58-3.57,20.28-7.45,23.82-8.64c16.9-5.6,70.53-34.17,80-42.65
		c9.52-8.46,25.58-16.79,29.56-15.25c2,0.77,5.88,0.21,8.61-1.26c3.67-1.95,4.97-1.78,5.01,0.67c0,1.82,0.39,13.67,0.84,26.37
		l0.8,23.09l-29.07,0.35c-28.82,0.31-33.79-1.19-23.93-7.34c2.84-1.78,5.15-4.69,5.15-6.44c0-1.78,1.57-3.25,3.56-3.25
		c4.37,0,7.42-6.93,3.95-9.06c-2.3-1.43-23.15,13.01-25.07,17.39c-0.46,1.08-2.35,1.95-4.16,1.95c-1.82,0-4.86,1.82-6.72,4.09
		c-4.86,5.88-29.95,21.56-34.46,21.56c-2.1,0-3.82,1.01-3.82,2.27c0,1.26-4.3,3.08-9.62,4.03c-5.28,0.98-11.93,3.22-14.72,5.03
		c-2.84,1.78-9.76,3.96-15.4,4.79c-5.63,0.88-21.73,3.39-35.75,5.63c-14.03,2.2-27.32,3.89-29.53,3.67
		c-2.17-0.21-4.55-0.17-5.25,0.11c-4.59,1.82-15.95,0.95-26.94-2.06c-7.07-1.96-19.77-5.25-28.23-7.35
		c-8.47-2.06-17.7-4.72-20.5-5.84c-2.84-1.15-9.03-3.56-13.78-5.35c-4.8-1.78-16.31-8.36-25.58-14.59
		c-24.31-16.3-41.53-24.63-44.6-21.55c-3.19,3.15-0.35,8.11,4.58,8.11c2.03,0,3.71,1.44,3.71,3.22c0,2.9-24.21,3.81-59.64,2.24
		l-7.03-0.35v-25.65c0-14.1,0.66-25.64,1.5-25.64c0.84,0,3.5,2.45,5.91,5.46c3.22,3.95,8.29,5.8,18.37,6.74
		C799.33,1024.7,809.69,1027.85,816.05,1031.56z M932.41,1139.8c3.36-0.07,11.29,0.46,17.62,1.19c6.37,0.73,17.49,2.02,24.74,2.87
		c11.37,1.33,13.01,2.2,11.93,6.44c-1.23,4.68-4.9,4.93-74.38,5.63c-40.16,0.39-73.39,0.13-73.81-0.56
		c-1.33-2.2-2.41-38.79-1.85-61.92c0.64-26.17,2.9-28.37,19.17-18.75c5.98,3.54,14.62,8.33,19.2,10.68
		c8.61,4.37,11.87,10.42,3.85,7.14c-10.28-4.24-13.47-4.38-13.47-0.56c0,2.1,4.34,5.81,9.62,8.22c5.28,2.42,14.24,6.51,19.87,9.06
		c5.63,2.55,18.33,6.5,28.23,8.81c9.87,2.27,20.26,4.79,23.06,5.63c14.02,4.06,76.51,4.9,93.19,1.3c15.29-3.32,40.09-5.81,38.1-3.85
		c-3.29,3.29-32.43,9.27-54.33,11.19c-28.37,2.44-58.31,0.98-82.07-4.09c-9.86-2.1-21.13-4.51-25.01-5.35
		c-5.28-1.12-7.07-0.52-7.07,2.49C909,1130.45,924.51,1140,932.41,1139.8z M1021.13,1144.48c12.39-0.73,26.02-2.79,30.26-4.58
		c4.2-1.76,11.71-4.83,16.65-6.82c14.17-5.71,16.68-7.63,16.27-12.35c-0.29-3.12,4.09-6.37,14.76-10.99
		c8.33-3.56,15.14-7.48,15.14-8.67c0-1.19,1.54-2.14,3.43-2.14c1.93,0,5.56-2.3,8.11-5.14c9.63-10.63,11.02-6.99,10.85,28.06
		l-0.17,33.13l-57.58,0.22c-31.66,0.13-58.28,0.56-59.19,0.98c-4.51,2.09-19.63-2.52-20.33-6.22
		C998.67,1146.48,1002.2,1145.6,1021.13,1144.48z M1080.24,1250.76c-5.45-1.06-5.91-4.13-6.78-46.67c-0.46-20.47-1.33-38.06-2-39.12
		c-1.54-2.55-6.16-2.34,70.21-3.36c37.01-0.52,67.72-0.1,68.32,0.88c1.4,2.38,5.31,66.01,4.72,76.69c-0.31,5.84,0.81,8.46,4.02,9.27
		C1223.71,1249.71,1086.57,1251.98,1080.24,1250.76z M1344.61,1163.06l6.89,12.17c6.09,10.81,7,15.64,8.09,42.33l1.23,30.12
		l-16.24,0.52c-8.92,0.29-39.46,0.56-67.9,0.64l-51.7,0.13l-1.47-15.39c-0.77-8.47-1.76-28.09-2.14-43.62l-0.7-28.2l39.74,0.46
		c21.86,0.24,49.74,0.52,61.98,0.63L1344.61,1163.06z M1306.79,1098.3c4.58,8.08,13.4,23.23,19.63,33.58
		c6.19,10.35,10.91,19.14,10.46,19.52c-0.46,0.35-8.57,1.36-18.09,2.2c-20.78,1.85-21.62,0.94-22.15-25.19
		c-0.21-9.86-1.08-23.99-1.95-31.41C1292.66,1079.27,1296.29,1079.66,1306.79,1098.3z M1286.93,1108.62
		c1.18,21.56,1.53,40.9,0.73,42.96c-1.93,5.04-65.49,5.56-70.46,0.6c-2.41-2.42-3.64-2.45-5.03-0.18
		c-1.26,2.03-11.86,2.97-32.99,2.9l-31.13-0.06l-1.72-11.45c-0.94-6.26-1.54-17.42-1.29-24.73c1.23-40.83-1.47-51.49-10.15-40.3
		c-2.73,3.53-5.84,5.49-6.92,4.37c-1.12-1.08,1.18-4.55,5.07-7.63c6.96-5.53,8.71-5.67,79.41-5.67h72.31L1286.93,1108.62z
		 M1239.87,983.42c0,2.48,16.06,29.95,32.56,55.69c12.53,19.55,12.88,21.27,4.27,21.69c-4.02,0.21-19.17,0.56-33.62,0.77l-26.3,0.41
		l-0.32-15.53c-0.17-8.5-0.66-18.37-1.08-21.9c-0.42-3.54-1.15-14.31-1.6-23.97l-0.81-17.56l13.43-1.05
		C1234.2,981.36,1239.87,981.99,1239.87,983.42z M1143.56,818.72c5.45,9.52,12.45,21.34,15.56,26.28c3.08,4.97,5.71,9.93,5.8,11.05
		c0.11,1.16,2.97,5.78,6.4,10.29c3.43,4.48,7,10.53,7.91,13.43c1.65,5.14,0.81,5.25-38.3,5.45c-25.58,0.11-40.96,1.19-42.79,3.01
		c-4.5,4.51-0.66,6.13,15.26,6.48l14.79,0.31l0.11,13.16c0.17,25.67,0.83,25.43-28.2,10.59c-52.23-26.62-74.4-32.63-120.3-32.71
		c-37.26-0.04-57.65,5.95-125.31,36.8l-14.72,6.72l-0.18-5.73c-0.1-3.15-0.66-9.31-1.22-13.68c-1.72-13.05,3.46-17.46,17.95-15.29
		c9.05,1.37,11.54,2.59,9.4,4.73c-1.57,1.57-2.87,4.83-2.87,7.27c0,2.42-1.47,4.97-3.21,5.67c-2.07,0.84-1.76,1.4,0.91,1.5
		c2.27,0.11,10.35-3.12,17.98-7.17c17.38-9.3,51.77-20.22,72.97-23.23c20.47-2.9,77.07,0.88,96.03,6.4
		c7.73,2.28,16.97,4.76,20.5,5.53c3.54,0.77,8.19,2.95,10.35,4.8c2.18,1.89,11.41,5.77,20.5,8.63c19.52,6.09,17.88,5.81,17.88,2.95
		c0-1.3-3.19-3.65-7.07-5.25c-18.05-7.49-27.56-13.68-23.4-15.26c8.53-3.22-3.01-16.93-18.92-22.42c-5.84-2-6.72-6.75-7.59-40.06
		l-0.73-27.57l7.7-0.31c12.21-0.46,26.72-0.49,47.54-0.07l19.34,0.38L1143.56,818.72z M1081.92,712.13
		c20.39,32.29,45.16,78.12,43.27,80.01c-0.88,0.87-30.79,1.57-66.47,1.57c-59.3,0-65.07-0.38-67.02-4.48
		c-2.2-4.68-2.35-74.13-0.18-76.33C992.86,711.58,1081.08,710.84,1081.92,712.13z M1052.99,850.77
		c-0.39,11.19-1.22,11.44-12.98,3.91c-6.96-4.48-13.67-5.84-32.25-6.64c-20.85-0.91-62.76,2.31-80.98,6.22l-6.58,1.43l-1.25-54.29
		l39.28-0.31c65.98-0.49,90.08,0.06,92.12,2.17C1052.19,805.23,1053.7,831.64,1052.99,850.77z M1054.99,668.06
		c1.26,0,6.37,7.21,11.34,16.02c7.94,14.07,8.5,16.24,4.72,17.78c-7.62,3.07-15.25,2.2-16.83-1.96
		C1051.77,693.52,1052.4,668.06,1054.99,668.06z M993.03,564.51c1.33-2.27,9.06,9.23,23.69,35.09l8.22,14.59h-14.07
		c-8.08,0-15.14-1.37-16.65-3.22C991.56,607.78,990.59,568.7,993.03,564.51z M972.29,575.07c9.41-13.95,12.66-12.35,10.15,5.01
		c-0.77,5.36-1.48,15.22-1.5,21.93l-0.11,12.18h-15.4c-8.46,0-15.39-0.42-15.39-0.99C950.04,611.31,963.96,587.42,972.29,575.07z
		 M927.59,651.51c4.58-6.16,10.28-14.66,12.59-18.9c3.84-6.96,5.84-7.87,20.53-9.41c8.96-0.94,28.3-1.29,43.02-0.87l26.77,0.81
		l7.87,13.43c6.19,10.52,7.8,16.16,7.55,26.27c-0.17,7.1-0.48,19.27-0.66,27.11l-0.31,14.2l-33.97-0.35
		c-18.72-0.21-35.71,0.07-37.85,0.64c-2.1,0.59-14.79,0.42-28.19-0.35l-24.39-1.44l-0.66-19.97
		C919.22,663.65,919.57,662.22,927.59,651.51z M910.54,686c0.56,0,1.05,3.89,1.05,8.68c0,6.5-1.29,8.99-5.14,10
		c-2.79,0.73-5.63,0.53-6.22-0.46C899.14,702.48,908.48,686,910.54,686z M851.56,787.8c0.98-3.07,6.23-12.94,11.65-21.93
		c5.45-8.96,9.9-17.07,9.9-18.02c0-1.89,16.05-27.84,20.18-32.67c1.61-1.85,17.36-3.04,44.99-3.36l42.54-0.46l0.39,16.16
		c0.81,32.89,0.31,58.14-1.23,62.13c-1.4,3.64-9.16,4.09-65.9,3.96l-64.34-0.14L851.56,787.8z M801.29,877.08
		c1.4-0.88,2.55-3.74,2.55-6.37c0-2.62,1.01-5.14,2.27-5.6c1.23-0.49,7.1-10.11,13.05-21.38c5.91-11.29,13.65-25.46,17.21-31.51
		l6.4-10.95l33.75,0.7l33.76,0.73l0.24,29.95c0.22,28.72,0,30.02-5.35,31.38c-5.25,1.3-13.19,13.58-10.5,16.26
		c0.7,0.67,12.56-2.3,26.37-6.61c13.82-4.33,28.79-8.57,33.27-9.45c13.68-2.65,64.26-2.17,71.89,0.73
		c3.96,1.48,10.07,3.33,13.61,4.09c7.03,1.51,25.88,14.42,21.05,14.42c-1.64,0-12-3.04-22.94-6.79c-17.04-5.8-24-6.79-48.14-6.61
		c-30.86,0.24-65.77,5.53-78.58,11.89c-4.48,2.24-10.04,4.09-12.35,4.09c-2.34,0-5.35,1.01-6.68,2.28v-0.04
		c-5.07,4.76-12.73,5.38-15.32,1.33c-2.17-3.46-8.43-4.06-40.36-3.81c-31.34,0.21-37.78-0.39-37.78-3.47
		C798.74,880.33,799.9,877.95,801.29,877.08z M753.62,962.74c3.6-6.22,13.08-23.4,21.09-38.23c7.98-14.79,15.01-27.49,15.6-28.17
		c0.6-0.7,9.13-1.54,18.97-1.89c12.73-0.45,18.22,0.32,19.13,2.7c2.53,6.58,2.38,42.75-0.17,42.85
		c-3.64,0.14-29.49,24.66-29.49,27.95c0,1.5,1.33,2.73,2.97,2.73c4.55,0,25.22-12.7,25.22-15.49c0-1.37,1.08-2.45,2.38-2.45
		c1.29,0,5.84-3.46,10.07-7.69c4.24-4.24,9.62-7.7,11.96-7.7c2.35,0,13.12-4.54,23.93-10.07c10.77-5.56,26.55-12.56,34.98-15.6
		c8.46-3.01,16.55-6.4,17.95-7.52c9.27-7.2,63.63-8.19,95.61-1.71c30.54,6.19,47.11,12.11,82.69,29.45
		c17.63,8.64,33.51,15.71,35.27,15.71c1.75,0,3.22,1.12,3.22,2.44c0,1.33,4.3,4.48,9.62,6.97c5.28,2.44,11.02,6.26,12.73,8.43
		c2.7,3.43,3.12,3.22,3.18-1.64c0.07-4.09-4.23-8.4-16.19-16.13c-17.63-11.41-17.01-10-17.63-39.81l-0.28-12.84l24.8-0.73
		c13.68-0.38,24.81-1.82,24.81-3.19c0-1.36,1.23-2.48,2.7-2.48c1.5,0,1.99,1.19,1.08,2.66c-0.91,1.47,8.26,20.04,20.36,41.31
		c12.11,21.27,22,39.46,22,40.41c0,0.94-8.64,1.61-19.16,1.47c-10.57-0.14-20.53,0.53-22.15,1.54c-4.48,2.76-0.18,7.52,6.86,7.52
		c4.13,0,6.37,1.51,6.54,4.48c0.18,2.48,0.66,7.66,1.15,11.54c0.46,3.88-0.28,7.03-1.61,7.03c-1.29,0-2.37-2.35-2.37-5.25
		c0-3.54-2.53-6.13-7.7-7.94c-4.23-1.47-7.69-3.64-7.69-4.79c0-1.16-3.47-2.87-7.69-3.82c-4.24-0.9-7.7-2.52-7.7-3.49
		c0-1.02-5.21-3.99-11.54-6.62c-6.37-2.62-11.54-5.7-11.54-6.82c0-1.12-12.98-8.53-28.86-16.48c-15.88-7.94-30.57-15.95-32.7-17.84
		c-9.69-8.53-43.03-18.26-74.38-21.73c-28.26-3.12-64.99,2.41-103.23,15.57c-17.28,5.95-31.8,11.76-32.28,12.95
		c-0.46,1.18-1.85,2.17-3.04,2.17c-1.23,0-7.39,3.46-13.65,7.69c-6.26,4.2-12.59,7.67-14.02,7.67c-1.47,0-5.91,2.65-9.9,5.88
		c-3.98,3.22-11.58,8.08-16.85,10.84c-5.28,2.72-9.63,5.7-9.63,6.61c0,0.91-6.65,3.6-14.76,5.98c-8.08,2.42-18.02,6.15-22,8.33
		c-7.07,3.84-7.25,3.81-6.4-2.07c0.63-4.37,2.9-6.4,8.33-7.34c4.13-0.7,7.97-2.73,8.57-4.48c0.77-2.35-3.08-3.25-13.93-3.25
		C747.45,978.28,745.67,976.46,753.62,962.74z M704.6,1047.34c3.25-4.76,12.17-20.53,19.87-35.05
		c13.93-26.28,14.02-26.38,22.94-25.65l8.99,0.73v39.18v39.22l-28.85-0.73C695.15,1064.2,693.86,1063.18,704.6,1047.34z
		 M697.72,1115.37c0.21-21.82,0.98-40.36,1.75-41.13c1.82-1.82,113.94-3.3,121.74-1.61c5.77,1.23,5.8,1.54,5.38,41.97l-0.42,40.76
		l-16.93,0.11c-9.3,0.07-31.34,0.46-48.98,0.88c-17.63,0.41-39.01,0.35-47.47-0.21l-15.4-0.98L697.72,1115.37z M753.86,1164.32
		v41.49c0,22.81-0.94,42.37-2.06,43.52c-2.42,2.38-105.41,3.43-114.33,1.12c-5.98-1.53-6.05-1.95-5.67-32.28
		c0.35-26.02,1.3-32.5,6.09-42.3l5.67-11.54H753.86z"/>
	<path class="st1" d="M823.83,439.76c1.12,0,2.17,2.03,2.34,4.51c0.88,11.75,5.46,30.43,9.3,37.82c1.47,2.83,3.01,8.18,3.43,11.96
		c0.42,3.74,2.69,12.42,5.08,19.25c2.34,6.82,5.18,16.44,6.26,21.38c3.01,13.75,10,39.14,12.31,44.88
		c4.44,10.88,8.33,23.34,9.23,29.49c0.53,3.54,2.13,9.52,3.57,13.26c1.95,5.1,3.91,6.5,7.73,5.53c3.84-1.01,4.59-2.42,2.9-5.56
		c-1.23-2.35-3.91-10-5.98-17.07c-2.09-7.04-6.37-21.73-9.55-32.64c-3.15-10.88-6.58-19.31-7.56-18.68
		c-1.01,0.63-1.93-2.31-2.07-6.54c-0.31-11.69-5.7-35.47-8.43-37.16c-1.3-0.81-2.38-4.09-2.38-7.31c0-3.19-0.8-6.61-1.78-7.59
		c-1.89-1.89-2.1-2.66-4.76-17.31c-0.95-5.08-4.76-18.26-8.46-29.28c-6.93-20.46-13.19-27.84-13.19-15.53
		C821.83,436.79,822.74,439.76,823.83,439.76z"/>
	<path class="st1" d="M838.51,685.34c1.89,5.95,7.45,7.73,10.18,3.29c1.71-2.79-5.53-18.3-9.93-21.2c-4.45-2.94-6.69-2.31-6.69,1.89
		c0,2.13,1.19,3.84,2.66,3.84c1.47,0,2.53,1.44,2.31,3.22C836.84,678.13,837.5,682.19,838.51,685.34z"/>
	<path class="st1" d="M408.23,1023.27c20.82-0.56,86.27-1.75,145.49-2.59c78.82-1.12,108.17-2.35,109.53-4.55
		c3.85-6.22-6.99-7.69-43.84-5.95c-20.54,0.99-83.54,2.35-139.99,3.04c-56.43,0.7-104.05,1.78-105.83,2.38
		c-1.75,0.59-3.18,2.79-3.18,4.94C370.42,1023.79,375.91,1024.22,408.23,1023.27z"/>
	<path class="st1" d="M619.52,1342.17c34.94-30.93,45.83-41.56,45.83-44.68c0-10.25-8.43-3.67-62.62,48.63
		c-8.57,8.29-20.78,19.21-27.14,24.28c-6.33,5.03-17.91,15.01-25.71,22.11c-7.8,7.1-17.87,16.06-22.39,19.94
		c-5.11,4.34-7.63,8.47-6.68,10.88c2.27,5.98,5.63,4.76,15.88-5.7c5.18-5.31,18.64-17.7,29.91-27.6c11.3-9.86,26.3-23.33,33.34-29.9
		C607,1353.54,615.82,1345.46,619.52,1342.17z"/>
	<path class="st1" d="M878.36,1356.69c1.23-2.8,5.67-15.5,9.87-28.2c4.2-12.7,8.36-24.98,9.23-27.25c1.05-2.72-0.04-4.58-3.22-5.38
		c-3.92-1.05-5.45,0.94-8.11,10.53c-5.01,17.91-8.99,29.66-10.57,31.06c-0.77,0.73-3.5,8.79-6.09,17.98
		c-2.55,9.17-6.37,21.27-8.46,26.9c-2.1,5.67-4.33,13.12-5.01,16.61c-0.63,3.5-2.1,6.97-3.25,7.7c-1.16,0.73-2.9,6.26-3.91,12.24
		c-1.02,6.02-2.87,10.92-4.16,10.92c-1.3,0-2.14,0.87-1.93,1.92c1.01,4.44-3.96,23.09-8.36,31.41c-5.88,11.1-25.4,70.14-25.4,76.86
		c0,2.7-1.16,5.63-2.55,6.51c-1.43,0.88-2.59,3.15-2.59,5.1c0,1.93-1.33,6.79-2.97,10.75c-1.64,3.98-2.76,8.11-2.55,9.2
		c0.24,1.08-1.36,6.26-3.54,11.51c-2.2,5.25-5,13.96-6.19,19.31c-3.91,17.46,3.22,9.27,9.8-11.2c3.36-10.46,15.32-45.58,26.62-78.01
		c11.27-32.46,25.05-73.43,30.61-91.06C865.25,1391.53,873.49,1367.88,878.36,1356.69z"/>
	<path class="st1" d="M945.42,1291.3c-1.5,0-3.5,1.19-4.41,2.62c-1.76,2.83-7.21,38.03-11.76,75.59c-1.54,12.7-3.43,24.81-4.2,26.94
		c-2.37,6.44-3.99,15.43-7.03,39.74c-3.01,23.71-3.64,27.42-6.12,35.33c-1.48,4.55-3.19,13.47-3.89,19.8
		c-0.7,6.37-2.59,18.3-4.16,26.55c-1.61,8.26-2.2,16.83-1.33,19.03c0.83,2.24,0.55,4.72-0.64,5.53
		c-2.13,1.47-11.68,53.13-14.61,79.06c-0.91,8.02-0.53,13.47,0.94,13.47c3.15,0,4.55-4.66,8.01-26.72c1.5-9.76,3.14-18.4,3.64-19.25
		c0.48-0.81,1.64-8.22,2.59-16.44c0.94-8.26,2.66-17.49,3.82-20.53c1.16-3.05,2.97-13.05,3.98-22.21
		c1.05-9.17,2.48-20.11,3.15-24.35c0.7-4.24,1.4-10.88,1.6-14.76c0.22-3.89,1.05-7.08,1.82-7.08c0.81,0,1.72-4.44,2.03-9.93
		c0.31-5.45,1.23-12.66,2.02-16.02c0.81-3.36,2.49-13.47,3.72-22.5c1.25-9.02,2.94-18.57,3.77-21.23c0.84-2.66,2-8.46,2.56-12.94
		c1.08-8.4,10.74-66.32,12.83-76.82C947.24,1306.83,948.01,1291.3,945.42,1291.3z"/>
	<path class="st1" d="M783.28,565.56c3.5,7.69,8.02,15.25,10,16.83c2.03,1.54,2.84,4.13,1.85,5.73c-1.01,1.65-0.66,2.97,0.81,2.97
		c1.43,0,2.03,1.54,1.3,3.43c-0.7,1.89,0.49,4.93,2.66,6.72c2.17,1.82,3.95,4.34,3.95,5.6c0,2.03,4.9,13.78,13.71,32.99
		c1.65,3.53,4.13,7.27,5.53,8.29c7.76,5.7,8.46-1.08,1.29-12.84c-2.83-4.62-5.14-9.93-5.14-11.79c0-1.85-3.92-11.34-8.75-21.1
		c-9.09-18.4-19.38-41-29.66-65.17c-14.9-34.95-23.02-50.69-26.87-52.16c-8.5-3.3-6.4,5.98,8.08,35.85
		C770.23,537.78,779.78,557.86,783.28,565.56z"/>
	<path class="st1" d="M378.74,906.6c1.75,0.04,13.02,1.82,25.01,3.95c46.57,8.33,181,31.03,284.69,48.1
		c8.89,1.44,11.54,0.64,11.54-3.49c0-4.38-15.31-8.47-47.43-12.66c-13.4-1.72-26.7-3.67-29.49-4.31
		c-2.84-0.63-13.82-2.24-24.39-3.56c-10.57-1.33-23.86-3.54-29.49-4.9c-5.63-1.4-16.61-3.21-24.39-4.06
		c-7.73-0.84-21.02-2.42-29.49-3.47c-20.21-2.59-105.58-17.88-115.4-20.7c-20.46-5.85-24.39-5.92-24.39-0.25
		C375.52,904.15,376.99,906.6,378.74,906.6z"/>
	<path class="st1" d="M443.7,695.62c7.91,5.74,59.9,38.1,77,47.89c8.61,4.93,17.1,10.74,18.89,12.9c1.82,2.18,4.44,3.96,5.85,3.96
		c1.4,0,7.9,3.84,14.41,8.53c10.04,7.24,31.66,21.09,48.73,31.2c2.38,1.43,7.77,5.01,11.96,8.01c4.2,2.97,13.4,8.32,20.47,11.89
		c18.22,9.2,46.45,24.41,69.75,37.6c10.98,6.26,23.47,12.11,27.7,13.05c9.45,2.13,11.54,1.12,11.54-5.42c0-3.36-2.9-6.33-8.36-8.61
		c-4.59-1.93-15.82-7.76-24.98-12.98c-9.21-5.25-27.08-14.88-39.78-21.38c-12.7-6.55-23.47-12.77-23.93-13.82
		c-0.48-1.05-1.92-1.92-3.25-1.92c-1.29,0-7.94-3.95-14.79-8.75c-6.82-4.79-17.28-11.22-23.23-14.23
		c-5.95-3.04-17.35-10.07-25.36-15.64c-8.01-5.57-16.02-10.11-17.8-10.11c-1.78,0-6.65-3.04-10.85-6.79
		c-8.64-7.73-27.91-19.52-49.4-30.3c-8.11-4.06-14.76-8.33-14.76-9.52c0-1.18-0.98-2.13-2.2-2.13c-1.23,0-10.99-5.77-21.65-12.83
		c-10.71-7.07-21.31-12.84-23.54-12.84C439.68,683.41,438.07,691.49,443.7,695.62z"/>
	<path class="st1" d="M427.2,807.14c14.61,5.11,35.79,12.7,47.08,16.83c11.3,4.13,33.8,12.39,50.03,18.33
		c16.24,5.95,39.88,14.7,52.58,19.42c27.05,10.04,70.6,25.82,110.27,39.92c31.62,11.23,38.76,12.42,35.09,5.85
		c-1.96-3.5-33.09-16.41-70.98-29.46c-4.24-1.47-10-3.6-12.84-4.76c-8.25-3.36-37.64-12.83-48.16-15.56
		c-5.32-1.36-11.69-3.47-14.11-4.66c-2.41-1.18-18.26-6.61-35.19-12.03c-16.94-5.46-32.5-10.77-34.6-11.83
		c-2.13-1.05-14.83-6.02-28.23-11.05c-13.4-5.01-30.12-11.93-37.18-15.39c-25.58-12.45-38.06-16.86-40.55-14.37
		C395.14,793.61,401.65,798.19,427.2,807.14z"/>
	<path class="st1" d="M679.9,581.02c8.02,11.19,15.6,20.33,16.83,20.33c1.26,0,1.65,1.01,0.88,2.24c-0.73,1.23,1.78,5.56,5.63,9.62
		c3.84,4.06,8.5,10.29,10.35,13.78c6.05,11.69,10.77,19.07,23.75,37.22c7.04,9.87,19.21,27.47,27.01,39.12
		c7.8,11.62,15.32,21.16,16.72,21.16c1.43,0,1.89,1.05,1.08,2.38c-0.81,1.29,0.6,3.91,3.12,5.77c2.52,1.85,5.87,6.26,7.49,9.8
		c1.61,3.53,5.03,8.99,7.66,12.14c2.59,3.15,6.75,5.78,9.21,5.78c6.26,0.04,5.7-8.36-0.95-14.31c-4.83-4.34-16.68-20.67-38.76-53.48
		c-3.85-5.7-7.91-11.55-8.99-12.99c-1.12-1.4-6.61-8.88-12.21-16.65c-5.6-7.76-11.05-14.48-12.14-14.97
		c-1.08-0.46-1.95-2.35-1.95-4.16c0-1.82-11.27-18.99-25.01-38.16c-13.75-19.21-28.48-40.68-32.71-47.76
		c-4.58-7.62-9.55-12.87-12.24-12.87c-6.37-0.07-8.33,6.68-3.39,11.58C663.5,558.81,671.9,569.82,679.9,581.02z"/>
	<path class="st1" d="M692.01,499.55c2.13,3.95,9.23,16.26,15.81,27.39c6.58,11.13,11.72,20.99,11.44,21.91
		c-0.31,0.94,2.24,4.75,5.63,8.5c3.39,3.74,7.52,10,9.16,13.89c1.65,3.88,4.16,7.03,5.56,7.03c1.37,0,1.89,1.64,1.15,3.6
		c-0.77,2,1.3,7.76,4.55,12.81c3.29,5.07,7.41,9.23,9.16,9.23c4.38,0.04,4.03-3.78-0.63-7.66c-2.13-1.79-3.85-4.76-3.85-6.65
		c0-1.92-2.17-7.24-4.79-11.89c-13.57-23.93-21.65-36.69-23.71-37.46c-1.26-0.49-2.27-2.45-2.27-4.41c0-3.68-5.35-14-16.16-31.14
		c-3.36-5.39-8.68-14.97-11.75-21.3c-9.34-19.24-16.83-30.78-19.94-30.78c-4.76,0,0.56,14.27,11.89,32.04
		C685.96,488.87,689.91,495.59,692.01,499.55z"/>
	<path class="st1" d="M538.61,638.95c6.92,5.85,16.2,13.93,20.61,17.95c4.41,4.02,15.29,13.65,24.17,21.41
		c16.68,14.52,44.46,39.95,56.11,51.35c3.64,3.54,9.79,8.05,13.64,10c3.85,1.96,7.59,5.46,8.33,7.74
		c0.73,2.27,10.07,9.86,20.78,16.89c10.7,7,20.22,13.89,21.16,15.32c0.95,1.43,6.33,5.78,11.96,9.62
		c5.63,3.85,18.33,13.33,28.2,21.1c18.96,14.87,20.81,15.64,26.93,11.44c3.3-2.24,2.91-3.29-2.48-6.99
		c-3.49-2.42-16.76-12.84-29.49-23.19c-12.73-10.32-33.55-26.9-46.25-36.83c-12.7-9.94-32.32-26.45-43.59-36.77
		c-11.3-10.28-29.98-25.71-41.56-34.28c-11.54-8.57-21.93-17.11-23.09-18.92c-1.12-1.82-10.77-10.39-21.44-19.03
		c-10.68-8.64-26.24-22.15-34.64-29.98c-8.36-7.87-16.3-14.34-17.59-14.34c-1.3-0.04-4.48-2-7.1-4.38
		c-3.12-2.79-5.63-3.42-7.28-1.75C493.48,597.81,510.52,615.27,538.61,638.95z"/>
	<path class="st1" d="M575.28,519.28c1.25,0,3.56,3.18,5.18,7.07c1.61,3.91,6.99,11.69,11.96,17.32
		c4.93,5.62,14.45,16.51,21.09,24.17c6.65,7.62,14.7,16.65,17.88,19.97c3.19,3.36,5.78,6.99,5.78,8.15c0,1.12,5.25,7.7,11.69,14.62
		c6.39,6.93,14.69,17.18,18.36,22.85c3.67,5.63,12.28,15.95,19.1,22.94c6.82,6.97,12.39,13.54,12.39,14.59
		c0,1.06,4.65,7.45,10.32,14.24c29.21,34.95,43.34,51.32,53.8,62.27c6.37,6.65,15.5,16.93,20.33,22.85c6.37,7.87,9.3,9.9,10.84,7.49
		c2.94-4.65,2.76-5.56-2.31-11.16c-2.49-2.73-10.29-11.89-17.32-20.33c-12.91-15.46-25.88-30.43-30.92-35.68
		c-1.5-1.54-3.81-4.75-5.14-7.14c-1.33-2.35-7.38-9.86-13.5-16.65c-6.09-6.82-18.65-22.22-27.84-34.18
		c-9.21-11.99-21.52-27.11-27.36-33.55c-14.94-16.51-44.01-52.3-59.26-72.9c-4.16-5.63-11.93-14.87-17.28-20.54
		c-5.36-5.63-9.73-11.12-9.73-12.18c-0.04-1.05-2.35-1.92-5.18-1.92c-2.83,0-5.1,1.71-5.1,3.84
		C573.04,517.56,574.05,519.28,575.28,519.28z"/>
	<path class="st1" d="M773.07,1419.55c2.83,0,11.05-18.05,9.09-20.01c-1.67-1.68-9.05,4.59-9.05,7.62c0,1.33,1.43,1.68,3.18,0.77
		c1.78-0.94,0.7,0.46-2.35,3.05c-6.02,5.11-6.12,5.28-40.09,67.55c-12.7,23.27-25.61,46.35-28.65,51.29
		c-6.55,10.53-14.2,29.24-14.2,34.67c0,8.64,5.31,2.59,15.18-17.36c11.27-22.74,25.12-48.45,33.2-61.67
		c8.92-14.59,31.13-59.29,31.13-62.65C770.51,1420.98,771.66,1419.55,773.07,1419.55z"/>
	<path class="st1" d="M969.49,1293.86c-2.79,0-4.09,2.55-4.23,8.33c-0.11,4.58-0.67,10.67-1.26,13.47
		c-0.59,2.83-1.65,18.39-2.35,34.63c-1.82,41.31-3.99,74.97-5.14,79.52c-0.53,2.1-1.61,11.33-2.42,20.5
		c-0.8,9.16-3.25,34.91-5.42,57.23c-4.58,46.99-5.14,61.6-2.48,65.84c2.3,3.74,6.19,0.35,7.49-6.54c0.87-4.73,2.17-23.51,5.7-83.2
		c0.88-14.79,1.93-31.51,2.35-37.18c0.42-5.63,1.4-22.35,2.2-37.18c0.81-14.8,2-30.96,2.7-35.89c2.52-17.6,3.67-29.84,5.28-54.5
		C973.3,1297.14,972.99,1293.86,969.49,1293.86z"/>
	<path class="st1" d="M805.84,1445.2c4.34-9.17,12.17-26.49,17.38-38.48c5.21-12,11.61-26.66,14.27-32.57
		c2.66-5.91,4.83-11.37,4.83-12.14c0-0.76,6.22-14.37,13.82-30.29c18.15-37.89,18.89-40.41,11.58-40.41c-3.15,0-4.97,0.73-4.06,1.68
		c0.94,0.91,0.7,2.95-0.49,4.48c-1.23,1.54-8.81,18.4-16.93,37.43c-8.12,19.03-15.64,35.79-16.69,37.18
		c-1.08,1.41-3.43,7.14-5.21,12.74c-1.82,5.56-7.14,17.56-11.89,26.66c-4.72,9.06-8.61,18.05-8.61,19.97c0,1.93-1.16,3.47-2.55,3.47
		c-1.4,0-2.38,0.88-2.13,1.92c0.21,1.08-0.84,4.83-2.35,8.36c-8.81,20.46-10.46,24.52-10.67,26.27c-0.14,1.08-2.49,6.16-5.25,11.34
		c-2.8,5.14-4.44,10.35-3.71,11.51c0.73,1.19,0.17,2.17-1.23,2.17c-2.97,0-13.19,25.99-11.37,29c2.27,3.71,7.17,0.22,8.61-6.12
		c0.77-3.43,5.7-15.43,10.99-26.73c5.25-11.29,10.5-22.8,11.65-25.64C796.96,1464.15,801.47,1454.36,805.84,1445.2z"/>
	<path class="st1" d="M894.87,1415.38c0.53-4.06,1.16-7.38,1.33-7.38c0.21,0,0.73-1.89,1.18-4.2c0.46-2.3,3.74-14.41,7.35-26.93
		c17.35-60.7,21.93-83.89,17.21-86.8c-1.47-0.91-2.66,0.18-2.66,2.38c0,2.2-1.08,6.05-2.38,8.5c-1.33,2.44-5.38,17.71-9.03,33.93
		c-8.08,35.79-15.07,63.32-23.54,92.53c-3.49,12.11-6.65,24.84-7.03,28.34c-0.39,3.47-1.33,7.41-2.17,8.79
		c-2.06,3.39-22.56,82.62-22.56,87.21c0,2.06,1.64,3.71,3.67,3.71c3.64,0,5.95-5.7,11.79-29.49c1.75-7.03,5.74-22.63,8.92-34.63
		c3.15-11.96,7.17-29.28,8.92-38.45c3.89-20.46,3.99-20.85,6.23-25.96C893.09,1424.66,894.35,1419.48,894.87,1415.38z"/>
	<path class="st1" d="M683.3,981.96c0-4.24-1.12-4.37-35.89-4.93c-27.81-0.42-57.92-2.79-61.18-4.83
		c-1.05-0.63-20.28-1.93-42.78-2.9c-22.53-0.98-42.78-2.73-45.02-3.89c-2.24-1.19-9.73-2.06-16.66-1.95
		c-6.92,0.1-19.84-0.6-28.65-1.54c-14.79-1.61-16.02-1.37-16.02,3.29c0,4.51,2.44,5.18,25.01,6.65c13.75,0.88,37.12,2.7,51.95,4.02
		c14.79,1.33,41.31,3.12,58.91,3.96c17.6,0.83,32.61,1.93,33.34,2.37c0.73,0.46,15.14,1.54,32.01,2.45
		c16.86,0.9,31.2,2.17,31.83,2.79C673.4,990.7,683.3,986.58,683.3,981.96z"/>
	<path class="st1" d="M684.03,705.62c-3.18,1.3,26.2,33.21,69.83,75.77c21.65,21.17,32.04,27.32,32.04,19
		c0-1.96-3.81-6.97-8.5-11.06c-4.68-4.13-9.23-9.3-10.07-11.51c-0.84-2.2-5.01-5.56-9.23-7.45c-4.27-1.85-7.21-4.2-6.62-5.21
		c0.64-0.98-2.72-4.16-7.45-7.1c-4.72-2.9-11.36-8.96-14.76-13.43c-9.83-12.94-12.98-15.43-17.42-13.75
		c-3.29,1.25-3.5,0.9-1.05-1.58c2.45-2.44-2.21-8.46-21.8-28.19c-13.71-13.78-34.15-35.16-45.44-47.51
		c-36.21-39.57-44.15-47.12-49.75-47.12c-2.97,0-5.39,1.4-5.39,3.08c0,1.71,14.42,17.49,32.05,35.05
		c17.62,17.6,32.08,32.61,32.08,33.38c0,3.88,24.83,25.99,29.38,26.16C684.8,704.26,685.75,704.92,684.03,705.62z"/>
	<path class="st1" d="M800.38,1359.48c-2.3,0.88-4.23,3.74-4.23,6.37c0,2.62-2.27,6.9-5.04,9.48c-2.79,2.59-5.42,6.96-5.87,9.72
		c-0.42,2.72-1.65,6.43-2.77,8.19c-1.25,1.99-0.63,3.22,1.72,3.22c2.06,0,6.15-4.93,9.13-10.92c2.97-5.98,9.13-17.38,13.76-25.36
		c4.58-7.93,13.43-23.51,19.62-34.59c6.22-11.12,12.81-22.5,14.66-25.33c2.3-3.6,2.55-6.33,0.77-8.99
		c-2.18-3.22-3.26-2.87-6.97,2.38c-8.26,11.71-33.55,61.22-32.04,62.72C803.92,1357.17,802.69,1358.58,800.38,1359.48z"/>
	<path class="st1" d="M741.82,828.21c-10.32-6.64-19.9-13.36-21.31-14.94c-1.43-1.58-13.53-10.32-26.93-19.42
		c-33.58-22.77-73.82-51.88-84.98-61.43c-5.1-4.38-10.11-7.98-11.12-7.98c-1.01,0-8.64-5.14-16.93-11.44
		c-8.29-6.3-19.42-14.28-24.77-17.67c-5.32-3.43-12.04-8.46-14.87-11.19c-5.39-5.14-11.54-5.07-11.41,0.14
		c0.07,2.48,29.88,24.52,45.66,33.75c2.42,1.43,11.3,7.8,19.73,14.2c8.44,6.4,17.77,13.33,20.75,15.39
		c3,2.06,18.4,12.98,34.25,24.28c15.84,11.3,31.27,22.21,34.32,24.28c3.04,2.06,11.86,8.53,19.62,14.34
		c7.76,5.85,23.82,17.14,35.72,25.08c11.87,7.98,22.11,14,22.75,13.33C765.44,845.84,758.86,839.16,741.82,828.21z"/>
	<path class="st1" d="M506.35,1104.14c20.44-4.12,44.68-9.4,53.84-11.71c9.17-2.31,22.46-5.18,29.49-6.33
		c26.94-4.48,40.02-8.22,39.07-11.12c-1.64-4.94-10.14-4.76-35.44,0.77c-13.29,2.94-28.72,5.95-34.28,6.72
		c-5.6,0.8-11.36,2.17-12.83,3.07c-1.44,0.91-7.84,2.42-14.2,3.36c-6.37,0.95-23.09,4.66-37.19,8.26
		c-14.13,3.61-31.09,7.1-37.77,7.8c-6.69,0.73-13.19,1.96-14.49,2.77c-1.29,0.77-14.13,3.78-28.54,6.61
		c-29.03,5.7-30.79,6.37-30.79,11.69c0,5.07,1.54,4.9,46.39-5.36C451.37,1115.7,485.89,1108.27,506.35,1104.14z"/>
	<path class="st1" d="M737.17,889.01c0-4.62-2.13-5.77-55.62-30.23c-7.32-3.32-13.89-6.09-14.62-6.09c-1.47,0-23.93-10.21-58-26.34
		c-12-5.7-26.42-12.42-32.05-14.94c-11.54-5.14-37.81-17.98-71.08-34.7c-24.73-12.39-28.44-13.33-27.22-6.72
		c0.84,4.59,6.61,7.91,40.65,23.58c10.53,4.83,32.43,15.07,48.65,22.74c40.72,19.24,73.09,34.28,89.66,41.7
		c7.73,3.43,27.36,12.81,43.62,20.78c16.27,8.02,31.03,14.66,32.78,14.77C735.74,893.66,737.17,891.63,737.17,889.01z"/>
	<path class="st1" d="M634.57,907.83c-20.43-5.01-40.65-10.15-44.88-11.44c-4.24-1.29-17.49-4.76-29.49-7.69
		c-12-2.94-24.1-6.44-26.94-7.76c-10.63-5.01-70.56-20.82-73.04-19.28c-7.24,4.48-0.81,8.53,23.69,14.88
		c14.45,3.77,36.66,9.72,49.35,13.25c12.7,3.56,38.7,10.5,57.73,15.43c19.03,4.9,50.79,13.47,70.52,18.99
		c38.34,10.74,43.62,11.4,43.62,5.42C705.13,925.56,698.45,923.5,634.57,907.83z"/>
	<path class="st1" d="M609.21,1109.5c-1.82-2.83-9.87-1.08-42.92,9.45c-22.39,7.14-56.28,17.84-75.32,23.79
		c-40.48,12.63-38.63,11.82-36.94,16.26c0.98,2.56,3.22,2.87,8.26,1.26c3.77-1.23,13.78-4.13,22.25-6.47
		c23.68-6.57,35.47-10.07,75.67-22.56c20.46-6.33,40.37-12.28,44.26-13.23C612,1116.22,612.66,1115.03,609.21,1109.5z"/>
	<path class="st1" d="M490.97,1202.52c5.31-1.19,82-32.54,89.17-36.52c3.21-1.76,5.14-4.38,4.26-5.81
		c-1.93-3.11-13.92-0.73-28.06,5.56c-5.62,2.53-17.18,7.7-25.64,11.52c-8.46,3.81-19.91,8.53-25.47,10.49
		c-5.53,2-14.76,5.78-20.5,8.44c-16.16,7.52-27.81,12.28-34.8,14.28c-17.32,4.92-38.35,17.1-38.45,22.28
		c-0.07,2.55,17.24-2.73,27.25-8.33c4.83-2.73,9.9-4.93,11.29-4.93c1.41,0,10.33-3.64,19.8-8.08
		C479.35,1206.96,488.83,1202.98,490.97,1202.52z"/>
	<path class="st1" d="M560.19,1208.57c0-2.45-1.05-4.48-2.38-4.48c-3.56,0-55.2,26.41-56.18,28.76c-0.46,1.12-3.01,2.02-5.67,2.02
		c-5.95,0-11.68,9.2-6.92,11.12c4.06,1.61,0.48,3.12,38.45-16.26C550.54,1217.98,560.19,1211.75,560.19,1208.57z"/>
	<path class="st1" d="M646.36,1037.58c-3.32-2.77-14.66-2.38-37.43,1.33c-3.54,0.56-16.48,2.2-28.83,3.61
		c-12.35,1.43-27.91,3.71-34.63,5.07c-6.72,1.33-15.08,2.35-18.62,2.17c-3.53-0.13-23.15,1.61-43.59,3.92
		c-20.46,2.31-38.65,4.23-40.4,4.23c-1.76,0-3.22,1.72-3.22,3.85c0,5.32,2.94,5.14,97.96-5.1c45.58-4.93,89.52-9.65,97.63-10.53
		C650.38,1044.54,652.65,1042.79,646.36,1037.58z"/>
	<path class="st1" d="M709.08,1444.43c1.47-1.68,6.61-9.45,11.47-17.21c4.83-7.74,10.57-16.34,12.7-19.1
		c2.18-2.77,3.92-5.98,3.92-7.17c0-2.02,2.24-5.14,9.62-13.36c1.75-1.96,3.21-4.31,3.21-5.14c0-1.5,8.75-14.55,14.11-20.99
		c3.14-3.82,15.91-22.53,29.88-43.8c10-15.22,11.79-25.33,3.95-22.35c-3.18,1.23-16.44,21.97-15.08,23.62
		c0.35,0.38-2.27,3.78-5.77,7.56c-3.5,3.78-7.8,10.39-9.52,14.69c-1.75,4.34-3.84,8.43-4.68,9.13c-0.84,0.7-5.35,7.34-10.04,14.76
		c-4.69,7.39-9.45,13.43-10.64,13.43c-1.16,0-5.1,6.37-8.78,14.13c-3.67,7.74-7.76,14.11-9.17,14.11c-1.36,0-2.48,1.64-2.48,3.64
		c0,2-0.88,4.02-1.93,4.48c-2.52,1.12-16.02,21.93-16.02,24.74c0,1.18-4.13,7.84-9.16,14.79c-10.36,14.31-14.62,23.51-12.49,26.94
		c0.77,1.29,1.82,2.34,2.28,2.34c1.08,0,21.93-33.16,21.93-34.87C706.38,1448.1,707.61,1446.14,709.08,1444.43z"/>
	<path class="st1" d="M687.08,1396.29c-0.63-1.02,0.42-2.49,2.35-3.22c1.92-0.73,14.02-14.41,26.9-30.4
		c12.87-15.99,24.94-30.79,26.76-32.92c20.04-22.92,27.88-38.45,19.45-38.45c-3.71,0-16.72,14.45-21.9,24.35
		c-2.21,4.23-7.59,11.44-11.93,16.02c-4.38,4.58-7.07,8.36-6.02,8.36c1.05,0-1.06,2.94-4.69,6.58c-3.6,3.6-8.57,9.65-11.02,13.47
		c-2.45,3.77-7.32,10.14-10.84,14.17c-3.54,4.02-6.4,8.04-6.4,8.99c0,0.9-2.31,4.02-5.14,6.92c-10.18,10.43-29.32,33.4-35.72,42.89
		c-6.89,10.25-22.87,31.62-36.69,49.09c-14.38,18.15-16.55,21.72-14.87,24.48c0.9,1.47,2.45,2.62,3.42,2.55
		c1.72-0.14,30.75-36.74,62.8-79.02c8.15-10.77,17.07-22.39,19.77-25.78C686.03,1400.97,687.7,1397.34,687.08,1396.29z"/>
	<path class="st1" d="M576.99,1318.1c20.68-15.43,25.36-20.36,23.05-24.13c-1.93-3.08-9.05-3.64-9.05-0.7
		c0,1.08-2.73,3.67-6.09,5.77c-5.35,3.36-13.19,9.62-37.08,29.67c-3.84,3.21-5.63,6.57-4.44,8.46
		C545.61,1340.84,549.49,1338.63,576.99,1318.1z"/>
	<path class="st1" d="M623.76,1393.87c-4.73,0-17.39,15.74-17.39,21.65c0,3.81,5.36,0.63,11.62-6.9c3.82-4.58,15.15-17,25.19-27.56
		c10.04-10.59,18.37-19.83,18.5-20.53c0.14-0.7,13.12-14.13,28.9-29.8c26.62-26.52,33.68-36.87,25.22-36.87
		c-3.14,0-17.8,14.66-43.42,43.42c-5.31,5.95-8.88,12.06-7.93,13.6c0.94,1.5,0.52,2.03-0.91,1.12
		c-3.14-1.92-39.64,36.56-37.68,39.71C626.59,1392.9,625.65,1393.87,623.76,1393.87z"/>
	<path class="st1" d="M520.07,1293.75c-3.39-3.42-17.08,2.1-26.17,10.53c-2.97,2.8-12.31,9.1-20.75,14.06
		c-10.81,6.33-14.9,10.11-13.85,12.84c0.95,2.45,3.26,3.29,6.4,2.31c5.81-1.85,36.39-22.08,37.64-24.87c0.46-1.09,2.21-2,3.85-2
		c1.65-0.04,5.87-2.27,9.41-5.01C521.44,1297.91,522.28,1295.95,520.07,1293.75z"/>
	<path class="st1" d="M1173.19,615.37c0,1.02-8.81,19.49-19.59,41.11c-12.53,25.08-18.99,40.9-17.95,43.69
		c1.36,3.47,2.44,3.74,5.42,1.26c2.03-1.68,4.44-5.56,5.39-8.61c0.91-3.04,6.89-15.95,13.25-28.65
		c6.37-12.66,13.02-27.12,14.77-32.05c1.75-4.93,8.43-19.94,14.83-33.33c6.4-13.4,17.53-36.66,24.7-51.67
		c7.17-15.01,13.05-27.95,13.05-28.79c0-0.8,2.87-7.76,6.4-15.49c7.52-16.48,7.59-16.9,2.48-16.9c-3.25,0-19.16,28.62-19.16,34.5
		c0,1.96-10.88,25.6-29.78,64.58C1179.42,600.72,1173.19,614.39,1173.19,615.37z"/>
	<path class="st1" d="M1467.85,1000.14c-87.57,0.53-159.7,1.43-160.3,2.03c-0.63,0.63-0.46,2.79,0.31,4.9
		c1.26,3.25,22.33,3.6,159.73,2.69c87.07-0.59,159.27-2.02,160.5-3.18C1635.24,999.79,1621.81,999.24,1467.85,1000.14z"/>
	<path class="st1" d="M1475.05,1395.94c-7.31-6.05-13.71-11.9-14.17-12.95c-0.48-1.08-2.3-1.93-4.06-1.93
		c-1.75,0-5.98-3.01-9.38-6.64c-3.42-3.67-12-10.85-19.07-15.99c-7.03-5.1-13.95-10.6-15.39-12.17
		c-1.41-1.58-16.55-14.03-33.65-27.64c-17.1-13.65-32.5-26.45-34.18-28.48c-3.39-4.06-10.39-2.62-10.39,2.13
		c0,3.96,14.07,12.24,16.72,9.83c1.12-1.01,1.37-0.63,0.53,0.88c-2.17,3.81,25.58,30.12,29.32,27.81c1.75-1.08,2.26-0.7,1.25,0.95
		c-0.94,1.5,2.07,5.38,6.64,8.6c4.62,3.22,8.96,6.65,9.65,7.63c0.71,1.01,19.17,16.33,41.03,34.08
		c21.87,17.73,41.07,32.28,42.68,32.28c1.61,0.04,3.57-1.6,4.37-3.64C1487.9,1408.32,1483.56,1402.94,1475.05,1395.94z"/>
	<path class="st1" d="M1318.44,1338.32c22.04,21.41,47.09,46.1,55.59,54.92c8.53,8.81,17.63,16.02,20.19,16.02
		c9.2,0,4.55-9.3-12.11-24.17c-9.23-8.26-30.89-29.43-48.1-47.05c-43.44-44.47-45.93-46.74-51.11-46.74
		C1272.72,1291.3,1280.24,1301.27,1318.44,1338.32z"/>
	<path class="st1" d="M1507.2,1239.32c-6.26-5.6-53.87-29.07-65.17-32.15c-5.18-1.4-10.11-1.92-10.92-1.12
		c-2.55,2.56-1.54,8.29,1.47,8.29c2.84,0,58.43,25.68,66.32,30.65C1507.8,1250.55,1514.58,1245.9,1507.2,1239.32z"/>
	<path class="st1" d="M1414.29,1291.27c-0.7-0.98-3.88-3.15-7.1-4.83c-4.79-2.52-6.05-2.38-7.31,0.88
		c-2.27,5.91,0.13,10.04,8.29,14.27c4.02,2.1,15.99,9.83,26.58,17.18c20.71,14.35,24.35,15.67,26.62,9.73
		c1.96-5.1-6.09-12.31-27.84-25.01C1423.67,1297.71,1414.99,1292.21,1414.29,1291.27z"/>
	<path class="st1" d="M1366.61,827.05c0.66,0,18.89-8.5,40.48-18.92c21.58-10.42,44.67-20.79,51.24-22.99
		c6.58-2.24,18.13-7.66,25.64-12.03c7.52-4.41,15.32-8.86,17.36-9.9c2.03-1.05,4.16-3.29,4.72-4.93c1.76-5.25-10.88-3.36-22.74,3.39
		c-6.22,3.5-15.36,8.22-20.28,10.42c-4.93,2.2-15.92,7.35-24.39,11.37c-8.46,4.06-22.88,10.74-32.04,14.9
		c-40.26,18.3-54.19,24.77-79.52,37.08c-14.79,7.16-37.33,17.8-50.03,23.64c-33.05,15.12-40.09,19.17-38.37,21.93
		c2.9,4.73,10.39,2.49,38.37-11.47C1310.53,852.87,1364.9,827.05,1366.61,827.05z"/>
	<path class="st1" d="M1441.3,961.63c18.4-2.06,40.19-3.77,48.45-3.77c8.26,0,22.08-1.12,30.68-2.53c8.64-1.4,21.23-3.22,28.02-4.02
		c7.84-0.94,11.96-2.59,11.33-4.51c-1.33-3.95-16.26-4.51-40.34-1.61c-31.62,3.85-92.28,9.91-112.71,11.3
		c-30.23,2.03-72.09,6.55-85.6,9.21c-6.82,1.32-16.3,2.44-21.1,2.44c-6.96,0-8.39,0.81-7.1,4.16c1.33,3.49,4.31,3.88,18.51,2.52
		C1380.6,968.1,1412.23,964.92,1441.3,961.63z"/>
	<path class="st1" d="M1343.77,908c12.7-3.25,31.07-8.43,40.86-11.44c9.79-3.05,29.42-8.33,43.62-11.76
		c14.17-3.43,37.92-9.76,52.72-14.1c14.83-4.3,33.58-9.73,41.7-12.04c8.08-2.3,14.72-5.18,14.72-6.33c0-3.56-12.98-5.6-16.09-2.52
		c-1.57,1.58-4.75,2.86-7.07,2.86c-2.3,0-11.58,2.24-20.63,4.97c-45.03,13.5-53.35,15.74-62.41,16.94
		c-5.39,0.66-19.76,4.65-31.94,8.85c-12.18,4.2-28.51,8.92-36.24,10.53c-12.99,2.66-56.04,13.78-80.81,20.85
		c-11.16,3.18-16.65,6.5-16.65,10c0,3.56,7.27,2.59,32.04-4.37C1310.29,916.88,1331.07,911.29,1343.77,908z"/>
	<path class="st1" d="M1467.12,814.24c-3.74,0-10.6,2.59-33.58,12.81c-5.63,2.52-21.23,8.29-34.64,12.9
		c-49.92,17.08-89.1,31.42-130.8,47.82c-21.45,8.44-21.3,8.33-17.73,12.66c3.53,4.24,5.66,3.71,34.32-8.36
		c11.26-4.73,23.54-8.61,27.28-8.61c3.78,0,7.42-1.43,8.12-3.22c0.66-1.75,5.7-4.76,11.16-6.64c9.12-3.14,35.75-13.12,61.26-22.98
		c5.63-2.17,14.87-5.91,20.5-8.29c15.88-6.68,46.17-17.91,62.34-23.05c8.04-2.59,25.01-8.85,37.71-13.93
		c12.7-5.07,34.03-13.36,47.43-18.43c13.41-5.08,27.05-10.25,30.3-11.52c5.36-2.02,5.53-2.65,2-6.19
		c-3.43-3.43-4.83-3.47-11.05-0.31c-3.92,2-14.62,6.19-23.79,9.38c-28.47,9.82-49.29,18.08-68.46,27.18
		C1479.33,810.29,1469.29,814.24,1467.12,814.24z"/>
	<path class="st1" d="M1528.44,1313.24c-25.36-13.16-37.99-20.46-47.46-27.49c-7.49-5.53-16.73-4.86-14.73,1.05
		c0.55,1.78,7.87,7.14,16.23,11.93c8.33,4.79,24.99,14.31,36.98,21.13c12,6.86,23.54,12.14,25.65,11.79
		C1553.91,1330.14,1547.72,1323.28,1528.44,1313.24z"/>
	<path class="st1" d="M1511.48,897.41c-6.51,0.59-16.31,2.27-21.8,3.77c-5.49,1.47-17.49,3.85-26.65,5.28
		c-9.17,1.43-22.46,3.85-29.49,5.43c-7.07,1.54-22.08,4.3-33.34,6.15c-28.41,4.69-75.98,13.54-97.46,18.13
		c-9.9,2.1-20.57,3.78-23.75,3.78c-5.46-0.04-7.76,4.79-4.06,8.53c2.17,2.13,0.04,2.34,21.31-2.14c10.04-2.1,40.4-8.01,67.52-13.15
		c27.07-5.11,57.33-10.92,67.2-12.88c9.9-1.96,24.91-4.61,33.37-5.91c8.46-1.3,29.21-5.28,46.14-8.81
		c16.93-3.57,41.78-8.33,55.17-10.6c45.48-7.69,59.37-11.54,58.42-16.23c-1.23-6.23-6.82-5.39-73.81,10.98
		C1535.41,893.34,1517.98,896.81,1511.48,897.41z"/>
	<path class="st1" d="M1206.39,1440.68c0.39-1.26-15.53-30.16-17.95-32.57c-1.33-1.33-2.41-4.51-2.41-7.03
		c0-2.55-2.31-6.93-5.14-9.76c-2.84-2.84-5.15-5.7-5.15-6.4c0-0.7-0.56-1.29-1.25-1.29h-3.78c-4.3,0,0.24,7.69,4.68,7.9
		c2.42,0.11,2.91,0.73,1.16,1.43c-1.67,0.71-2.45,2.91-1.64,4.94c0.77,2,2.41,3.01,3.67,2.24c1.23-0.77,1.61,0.25,0.84,2.27
		c-0.77,2,0.35,5.39,2.48,7.52c2.13,2.13,3.21,4.51,2.44,5.28c-0.77,0.77,2.62,9.86,7.59,20.19c4.97,10.32,13.23,27.99,18.33,39.28
		c5.14,11.27,12.46,27.15,16.26,35.27c7.39,15.74,8.12,16.41,12.74,11.75c2.31-2.3,1.58-5.77-3.01-14.76
		C1223.01,1481.19,1205.73,1442.81,1206.39,1440.68z"/>
	<path class="st1" d="M1324.53,1468.28c-1.43,0-2.59-1.23-2.59-2.7s-2.38-5.21-5.28-8.33c-2.9-3.11-11.79-15.46-19.69-27.46
		c-16.31-24.66-35.86-51.32-40.41-55.17c-1.71-1.41-3.19-3.47-3.36-4.58c-0.14-1.08-2.7-5.14-5.7-8.96
		c-2.97-3.85-13.51-18.51-23.4-32.61c-25.54-36.49-31.24-42.01-34.53-33.48c-0.76,2.03,0.99,6.3,3.92,9.45
		c2.94,3.18,5.36,6.61,5.36,7.66c0,1.05,1.5,3.43,3.29,5.28c1.82,1.85,6.12,7.42,9.55,12.35c3.43,4.97,7.42,10.28,8.88,11.89
		c1.47,1.58,4.38,5.42,6.51,8.53c12.73,18.68,28.93,39.99,30.96,40.72c1.3,0.46,2.38,2.48,2.38,4.48c0,2,2.3,5.95,5.14,8.78
		c2.8,2.8,4.34,5.11,3.39,5.11c-0.95,0,0.7,2.59,3.67,5.77c7.59,8.12,17.95,22.67,20.99,29.49c1.43,3.19,3.78,5.78,5.21,5.78
		s2.62,1.12,2.62,2.45c0,1.33,3.53,7.7,7.87,14.1c8.39,12.46,17.77,15.92,17.77,6.55
		C1327.08,1470.59,1325.93,1468.28,1324.53,1468.28z"/>
	<path class="st1" d="M1286.05,1496.55c0-1.12-1.78-3.47-3.92-5.28c-2.17-1.78-6.54-8.57-9.75-15.05
		c-10.71-21.82-32.99-60.49-37.89-65.83c-2.66-2.9-4.86-6.26-4.86-7.45c0-1.19-2.7-5.74-5.95-10.08
		c-3.29-4.38-9.45-14.87-13.67-23.34c-11.93-23.79-22.32-39.77-25.89-39.77c-1.75,0-3.22-1.89-3.22-4.2
		c0-5.8-10.22-25.71-15.74-30.74c-2.55-2.31-6.47-3.43-8.81-2.53c-3.57,1.37-3.72,2.28-0.84,5.74c3.78,4.55,8.22,11.82,13.16,21.55
		c7.42,14.7,18.92,30.4,23.15,31.56c2.45,0.7,4.48,2.59,4.48,4.19c0,1.65-1.15,2.24-2.55,1.37c-1.43-0.88-2.59-0.42-2.59,0.98
		c0,1.43,1.05,3.21,2.35,4.02c1.29,0.81,7.06,9.8,12.81,20.02c12.83,22.77,18.85,33.13,42.22,72.45
		c10.05,16.93,19.74,33.68,21.48,37.18c1.78,3.53,5.25,9.48,7.73,13.22c2.45,3.74,8.99,14.73,14.55,24.39
		c5.53,9.65,12.88,21.86,16.37,27.18c3.47,5.28,7.24,9.62,8.36,9.62c7.59,0,2.79-11.68-20.64-50.23
		C1290.7,1506.17,1286.05,1497.63,1286.05,1496.55z"/>
	<path class="st1" d="M1168.44,1361.17c-2.79-5.28-7.76-15.96-11.05-23.72c-10.53-24.83-22.04-44.85-26.24-45.68
		c-2.48-0.53-4.13,0.87-4.13,3.49c0,4.27,32.7,73.08,35.89,75.53c0.94,0.73,2.41,3.29,3.32,5.74c1.08,2.97,3.15,3.88,6.09,2.72
		c2.8-1.05,3.29-2.1,1.36-2.72c-1.67-0.56-2.42-2.1-1.65-3.39C1172.84,1371.83,1171.24,1366.45,1168.44,1361.17z"/>
	<path class="st1" d="M1606.17,1104.43c-56.25-9.48-65.59-10.99-72.62-11.96c-4.24-0.56-14.03-2.31-21.8-3.89
		c-7.76-1.58-25.08-4.41-38.48-6.3c-36.28-5.11-85.46-13.78-107.71-19c-15.92-3.74-20.54-3.5-20.54,1.08
		c0,5.18,7.17,7.59,33.33,11.27c41.07,5.74,111.59,17.95,126.47,21.9c8.19,2.17,18.32,3.96,22.52,3.96c4.24,0,20.61,2.83,36.42,6.33
		c15.84,3.46,32.81,6.75,37.74,7.27c4.94,0.53,13.37,1.15,18.68,1.36c8.64,0.39,9.45-0.1,7.24-4.23
		C1625.66,1108.94,1619.46,1106.67,1606.17,1104.43z"/>
	<path class="st1" d="M1430.95,1036c-39.43-1.71-64.23-3.53-81.33-5.95c-15.22-2.13-20.96-0.91-17.91,3.78
		c2.79,4.26,11.93,5.67,47.96,7.34c31.69,1.47,53.77,3.19,118,9.13c15.49,1.43,33.97,2.97,41.03,3.36
		c7.03,0.42,14.83,0.94,17.31,1.19c2.87,0.31,4.48-1.3,4.48-4.48c0-4.07-2.37-5.21-13.46-6.4
		C1526.41,1041.78,1462.46,1037.4,1430.95,1036z"/>
	<path class="st1" d="M788.39,665.43c2.94,1.58,5.21,5.39,5.21,8.75c0,3.29,4.02,11.02,8.96,17.21c4.93,6.19,8.96,12.63,8.99,14.23
		c0,1.65,3.07,7.7,6.85,13.43c5.32,8.16,7.59,9.83,10.25,7.63c4.58-3.81,4.3-6.47-1.19-11.96c-2.55-2.55-8.79-12.77-13.82-22.7
		c-5.04-9.93-12.77-23.02-17.18-29.11c-4.41-6.05-8.02-12.17-8.02-13.54c0-1.4-4.02-8.15-8.96-15.01
		c-4.93-6.89-8.99-13.5-8.99-14.72c0-4.79-10.63-15.43-14.1-14.1c-2.87,1.12-1.95,4.41,4.38,15.91c4.41,7.98,10.91,17.7,14.48,21.58
		c3.56,3.89,5.6,7.03,4.51,7.03c-1.06,0-0.11,1.82,2.13,4.06c2.2,2.24,3.43,5.08,2.66,6.3C783.8,661.65,785.55,663.89,788.39,665.43
		z"/>
	<path class="st1" d="M1554.09,1201.61c-25.43-9.47-32.81-11.96-41.03-13.78c-1.44-0.31-3.85-1.36-5.43-2.34
		c-1.58-0.98-18.5-6.93-37.6-13.23c-19.07-6.26-36.83-12.49-39.46-13.85c-10.64-5.45-24.39-10.74-27.89-10.74
		c-2.1,0-3.78,2.02-3.78,4.48c0.04,3.49,8.93,7.52,40.41,18.23c22.22,7.56,49.05,17.07,59.61,21.09
		c10.6,4.07,34.85,13.08,53.88,20.09c36.14,13.29,42.26,14.72,44.89,10.52C1599.45,1219.13,1593.12,1216.16,1554.09,1201.61z"/>
	<path class="st1" d="M1339.18,1411.54c-7.84-9.34-16.93-19.84-20.21-23.34c-3.3-3.46-9.76-10.85-14.35-16.34
		c-4.58-5.53-12.46-14.66-17.42-20.29c-5.01-5.66-13.54-16.61-19.03-24.38c-5.46-7.76-14.07-18.72-19.07-24.35
		c-5.01-5.67-9.13-11.12-9.17-12.21c-0.06-2.91-9.79-2.28-11.68,0.77c-1.89,3.04,2.37,9.9,14.62,23.44
		c4.68,5.21,13.15,14.87,18.82,21.47c38.72,45.31,51.14,59.93,57.72,67.83c4.09,4.94,15.12,18.2,24.49,29.49
		c9.34,11.27,18.37,21.65,20.01,23.1c1.65,1.4,6.93,7.73,11.76,14.1c4.79,6.33,12.21,15.29,16.48,19.87
		c8.6,9.23,10.04,9.79,13.92,5.14c1.96-2.38-1.75-8.26-14.02-22.46C1368.43,1446.17,1355.49,1431.02,1339.18,1411.54z"/>
	<path class="st1" d="M946.89,512.21c0.13-2.45-1.01-20.4-2.55-39.88c-2.38-29.42-3.64-35.82-7.39-37.85
		c-2.52-1.33-5.07-1.54-5.73-0.49c-1.26,2.1,4.65,63.05,7.34,75.22C940.35,517.32,946.47,519.55,946.89,512.21z"/>
	<path class="st1" d="M982.72,453.37c0.66,1.15,3.08,1.71,5.42,1.25c3.81-0.73,4.16-5.91,3.39-50.72
		c-0.46-27.42-1.36-50.8-2.06-51.88c-0.67-1.12-2.94-2.02-5.01-2.02c-3.21,0-3.71,7.59-3.32,50.65
		C981.38,428.53,982.08,452.25,982.72,453.37z"/>
	<path class="st1" d="M1092.81,610.34c-0.31,1.4-1.47,4.06-2.62,5.88c-1.16,1.85-1.43,5.01-0.66,7.07c1.15,2.94,9.31,5.67,9.31,3.08
		c0-0.35,6.99-27.78,15.56-60.91c8.57-33.16,16.68-67.2,18.02-75.67c1.36-8.46,3.56-17.38,4.96-19.84
		c3.3-5.87,3.19-17.35-0.17-17.35c-2.94,0-2.66-0.88-8.68,25.64c-2.41,10.57-5.45,21.55-6.75,24.35
		c-2.24,4.86-6.33,20.28-13.93,52.58c-1.85,7.76-5.84,22.77-8.92,33.37C1095.85,599.11,1093.08,608.9,1092.81,610.34z"/>
	<path class="st1" d="M976.84,937.35c2.02,0,4.41-1.15,5.27-2.55c0.88-1.43-0.8-2.59-3.71-2.59c-2.9,0-5.28,1.16-5.28,2.59
		C973.12,936.2,974.81,937.35,976.84,937.35z"/>
	<path class="st1" d="M1032.45,517.35c0.21-1.05,0.67-6.54,1.02-12.17c1.6-24.7,4.2-51.64,5.38-55.7c1.37-4.79-3.04-14.83-6.5-14.83
		c-1.19,0-2.14,3.74-2.1,8.32c0.11,8.16-1.82,30.96-4.86,57.51c-0.8,7.32-0.73,14.52,0.22,16.02
		C1027.56,519.7,1031.97,520.22,1032.45,517.35z"/>
	<path class="st1" d="M1073.17,556.46c1.61-11.27,4.09-28.02,5.53-37.18c1.43-9.17,3.07-20.71,3.74-25.64
		c1.5-11.83,10.14-65.63,16.47-102.47c3.32-19.31,4.16-30.23,2.53-31.86c-1.41-1.41-3.04-2.03-3.68-1.41
		c-0.63,0.64-3.04,13.82-5.35,29.32c-2.31,15.49-4.62,30.5-5.18,33.31c-2.24,11.68-14.24,82.66-15.19,89.76
		c-0.56,4.24-2.76,15.78-4.93,25.68c-5.25,23.79-6.97,38.83-5.08,43.77C1065.17,587.84,1070.2,577.34,1073.17,556.46z"/>
	<path class="st1" d="M870.91,691.04c-11.89,20.5-24.76,43.02-28.58,50.09c-3.85,7.07-9.65,17.46-12.94,23.09
		c-3.32,5.63-9.9,17.67-14.66,26.77c-4.76,9.06-10.67,19.45-13.19,23.09c-2.52,3.6-8.32,14.06-12.9,23.23
		c-4.59,9.2-10.88,20.15-13.96,24.38c-3.07,4.24-7.07,10.57-8.81,14.1c-4.62,9.17-9.2,16.86-12.46,20.89
		c-1.54,1.92-10.07,17.91-18.92,35.54c-8.88,17.63-21.13,40.55-27.25,50.87c-6.09,10.35-11.09,19.69-11.09,20.78
		c0,1.08-4.51,8.92-10,17.43c-5.5,8.5-12.31,20.71-15.15,27.11c-2.83,6.4-10.67,20.68-17.42,31.73
		c-6.72,11.05-18.96,33.2-27.18,49.22c-16.93,33.02-33.65,64.12-62.17,115.79c-18.36,33.3-18.39,33.33-14.17,36.1
		c2.2,1.43,20.29,1.89,43.49,1.12c21.86-0.7,143.64-1.89,270.59-2.59c448.96-2.52,582.11-3.99,584.62-6.51
		c1.58-1.57,0.84-3.64-2-5.7c-2.45-1.83-5.87-5.78-7.56-8.82c-11.89-21.27-24.41-42.26-31.13-52.19
		c-8.54-12.63-10.15-15.29-25.36-42.19c-5.6-9.9-11.02-18.54-12.04-19.24c-1.01-0.73-2.76-4.2-3.85-7.7
		c-1.12-3.53-6.47-13.47-11.89-22.08c-5.42-8.63-9.9-16.89-9.9-18.39c0-1.5-0.88-3.08-1.96-3.57c-2.35-1.05-23.68-34.98-23.68-37.71
		c0-1.08-4.97-9.37-11.03-18.43c-6.09-9.1-13.85-21.73-17.32-28.06c-3.42-6.37-8.67-15.01-11.64-19.24
		c-2.97-4.24-6.16-9.45-7.07-11.54c-1.93-4.51-5.98-11.1-13.43-21.8c-2.94-4.24-9.1-15.21-13.72-24.39
		c-4.58-9.16-9.69-18.39-11.33-20.5c-1.65-2.13-5.18-8.19-7.87-13.47c-2.66-5.28-5.63-9.62-6.61-9.62c-0.95,0-3.19-3.18-4.9-7.07
		c-1.76-3.89-11.23-20.33-21.1-36.56c-9.9-16.2-18.96-31.2-20.19-33.34c-1.18-2.1-6.57-11.33-11.96-20.5
		c-5.35-9.16-12.94-23.02-16.89-30.78c-3.96-7.76-13.19-23.54-20.57-35.09c-7.38-11.51-16.86-27.12-21.1-34.6
		c-4.19-7.52-11.58-20.61-16.34-29.08c-4.76-8.46-10.24-17.2-12.21-19.42c-1.93-2.24-3.54-4.79-3.54-5.7
		c0-2.62-38.65-69.02-45.26-77.7c-3.3-4.37-6.02-9.14-6.02-10.6c0-1.47-1.72-4.06-3.82-5.8c-2.09-1.75-3.19-4.2-2.42-5.45
		c0.77-1.26,0.18-2.27-1.33-2.27c-1.47,0-2.7-1.58-2.7-3.54c0-1.93-1.75-4.97-3.84-6.72c-2.14-1.75-3.85-5.28-3.85-7.8
		c0-5.56-12-20.43-16.44-20.43c-3.19,0-26.24,37.29-42.85,69.26c-4.76,9.17-12.42,22.42-17.01,29.42
		c-4.58,7.03-8.36,13.68-8.36,14.77c0,4.02,9.73,1.82,11.19-2.53c2.48-7.38,18.26-35.29,24.21-42.85c3.04-3.88,8.5-12.98,12.1-20.25
		c11.02-22.04,17.78-33.31,20.47-34.08c2.41-0.66,15.18,17.42,29.13,41.31c9.17,15.6,26.9,45.69,29.84,50.55
		c1.41,2.37,8.47,14.48,15.65,26.94c30.71,53.24,40.19,69.02,43.59,72.83c1.99,2.24,3.64,4.9,3.64,5.95
		c0,1.06,7.42,14.38,16.48,29.67c9.06,15.25,19.34,33.37,22.85,40.23c3.46,6.86,8.74,15.22,11.71,18.61
		c2.97,3.39,5.39,7.03,5.39,8.09c0,3.22,33.58,58.87,35.54,58.87c1.01,0,2.02,2.41,2.24,5.42c0.21,2.97,2.06,7.28,4.09,9.59
		c2.02,2.34,4.48,6.81,5.42,10c0.98,3.14,2.73,5.77,3.89,5.77c1.12,0,2.76,2,3.56,4.48c1.51,4.48,3.47,7.76,13.23,22.42
		c6.33,9.55,10,16.02,23.47,41.45c5.84,11.05,13.64,24.48,17.31,29.84c3.64,5.36,6.65,10.46,6.65,11.3c0,0.88,2.72,5.14,6.05,9.51
		c3.32,4.38,8.68,13.12,11.89,19.49c3.22,6.33,10.88,19.27,17.04,28.72c6.15,9.45,11.19,17.87,11.19,18.75
		c0,0.88,5.63,11.02,12.56,22.56c6.9,11.55,26.1,44.08,42.65,72.31c16.54,28.19,35.05,58.8,41.14,67.97
		c16.34,24.65,16.34,24.69,1.89,26.34c-6.79,0.81-87.35,1.5-179.05,1.61c-91.69,0.1-282.23,0.77-423.46,1.47
		c-141.18,0.66-257.4,0.59-258.21-0.21c-0.81-0.81,2.07-7.42,6.37-14.69c13.19-22.39,22.57-40.76,22.57-44.22
		c0-1.82,1.6-4.9,3.56-6.86c2-1.99,12.49-20.81,23.36-41.87c10.88-21.06,20.68-39.43,21.76-40.86c1.08-1.4,6.9-12.06,12.91-23.71
		c6.04-11.65,12.52-22.46,14.45-24.04c1.89-1.58,3.47-4.37,3.47-6.19c0-3.54,15.84-34.18,23.15-44.78
		c2.45-3.54,8.78-14.52,14.11-24.39c5.31-9.86,14.61-27.18,20.7-38.48c6.09-11.27,13.68-25.71,16.86-32.04
		c3.18-6.37,8.15-15.05,11.01-19.34c2.91-4.31,9.31-15.85,14.2-25.64c4.93-9.83,10.4-19,12.14-20.44
		c1.75-1.4,8.15-12.34,14.24-24.34c13.01-25.58,32.85-61.68,41.35-75.18c4.02-6.44,19.1-34.39,30.68-56.91
		c4.33-8.47,8.78-15.78,9.86-16.24c1.08-0.49,2-2.52,2-4.51c0-1.99,0.98-3.64,2.13-3.64c1.19,0,3.71-4.62,5.56-10.28
		c1.89-5.67,4.93-11.58,6.82-13.12c1.89-1.58,3.43-3.99,3.43-5.36c0-1.36,2.27-5.7,5.07-9.58c2.77-3.92,4.31-7.84,3.39-8.75
		c-0.88-0.91-0.42-1.64,1.08-1.64c1.47,0,3.36-2,4.2-4.48c0.81-2.45,2.94-6.44,4.68-8.86c3.85-5.28,1.02-9.06-3.77-5.07
		c-1.89,1.58-7.35,10.67-12.14,20.19C896.48,645.98,882.83,670.57,870.91,691.04z"/>
	<path class="st1" d="M934.86,972.09c-1.33-0.8-3.12-0.31-4.02,1.12c-0.88,1.44,0.21,2.62,2.41,2.62
		C937.72,975.83,938.39,974.29,934.86,972.09z"/>
	<path class="st1" d="M946.2,942.5c-4.66,0-5.11,4.16-0.64,5.98c1.79,0.7,3.5,1.4,3.85,1.5c0.35,0.1,0.63-1.54,0.63-3.64
		C950.04,944.21,948.33,942.5,946.2,942.5z"/>
	<path class="st1" d="M915.59,957.86c-2.2,0-3.99,1.15-3.99,2.59c0,1.4,1.08,2.55,2.42,2.55c1.33,0,3.12-1.16,3.99-2.55
		C918.87,959,917.79,957.86,915.59,957.86z"/>
	<path class="st1" d="M903.9,963c-1.43,0-2.59,1.16-2.59,2.55c0,1.43,1.15,2.59,2.59,2.59c1.4,0,2.55-1.15,2.55-2.59
		C906.45,964.15,905.29,963,903.9,963z"/>
	<path class="st1" d="M1202.58,1565.49c-0.25-2.24-8.19-23.86-17.67-48.03c-9.45-24.17-17.18-44.5-17.14-45.23
		c0.04-0.7-2.77-7.69-6.22-15.53c-3.47-7.84-6.31-16.27-6.31-18.79c0-2.48-0.91-5.63-2.02-6.96c-1.16-1.37-3.57-7.07-5.39-12.7
		c-1.85-5.63-10.85-29.32-19.97-52.58c-9.13-23.3-19.07-48.66-22.04-56.43c-6.61-17.07-8.11-19.07-13.12-17.14
		c-3.29,1.25-2.9,3.84,2.66,17.63c3.6,8.88,7.8,19.62,9.3,23.86c6.54,18.36,8.43,21.79,11.37,20.67c2.2-0.84,2.69,1.01,1.6,6.37
		c-1.01,5.08,0.04,9.83,3.22,14.62c2.59,3.89,4.41,8.64,3.99,10.53c-0.39,1.93,1.36,5.84,3.91,8.78c2.59,2.94,3.15,4.44,1.3,3.32
		c-2.62-1.54-2.83-0.9-0.95,2.77c1.33,2.62,3.61,7.66,5.04,11.19c1.43,3.49,4.3,10.42,6.4,15.36c2.1,4.96,7.52,19.97,12.06,33.37
		c4.55,13.4,11.19,31.27,14.73,39.75c3.56,8.46,8.61,22.07,11.19,30.23c2.62,8.15,6.37,18.54,8.37,23.09
		c1.99,4.55,6.19,15.74,9.3,24.91c3.11,9.17,7.51,21.03,9.79,26.35c2.27,5.31,5.32,9.23,6.82,8.7c3.36-1.19,2.8-16.06-0.88-23.26
		C1207.47,1581.55,1203.07,1569.87,1202.58,1565.49z"/>
	<path class="st1" d="M1278.35,657.39c0,1.12-7.81,10.17-17.39,20.11c-9.55,9.97-21.93,23.71-27.56,30.61
		c-5.6,6.85-16.13,18.85-23.37,26.62c-20.86,22.33-26.73,30.05-29.1,38.38c-5.11,17.8,5.35,8.04,48.06-44.78
		c13.67-16.93,30.96-37.43,38.41-45.51c7.42-8.12,13.54-15.61,13.57-16.69c0.04-1.05,4.24-6.54,9.34-12.21
		c16.58-18.33,49.68-59.99,49.33-62.1c-0.81-4.83,0.53-6.89,2.45-3.81c1.54,2.37,3.91,0.63,8.61-6.44
		c3.56-5.36,14.41-18.96,24.13-30.26c23.51-27.32,31.77-38.59,31.77-43.34c0-6.75-5.98-2.02-17.6,13.93
		c-6.16,8.43-12.21,15.32-13.47,15.32c-1.26,0-2.27,1.12-2.27,2.44c0,1.37-2.59,5.18-5.77,8.47c-3.19,3.29-9.24,10.35-13.47,15.7
		c-4.24,5.32-9.62,11.96-11.97,14.73c-2.35,2.79-8.11,9.87-12.81,15.74c-4.72,5.84-10.7,12.83-13.33,15.53
		C1307.28,618.69,1278.35,655.32,1278.35,657.39z"/>
	<path class="st1" d="M1265.62,738.58c1.43-1.43,30.82-31.03,65.28-65.83c52.85-53.35,62.05-63.75,58.87-66.4
		c-3.19-2.62-7.07,0.38-23.62,18.3c-23.16,25.04-112.29,113.9-147.69,147.27c-16.51,15.56-24.56,24.98-24.63,28.85
		c-0.07,3.15,0.81,5.78,1.93,5.78c1.12,0,16.72-14.73,34.67-32.71C1248.37,755.86,1264.18,739.98,1265.62,738.58z"/>
	<path class="st1" d="M1366.58,681.74c-11.54,9.02-45.02,38.55-59.37,52.33c-3.29,3.19-6.72,5.78-7.62,5.78
		c-3.85,0-10.5,8.53-9.24,11.82c0.91,2.31,0.14,3.15-2.1,2.31c-3.78-1.43-17.6,9.16-17.6,13.47c0,1.47-2.79,3.36-6.22,4.2
		c-3.43,0.87-6.99,3.88-7.87,6.68c-0.91,2.83-3.04,5.14-4.79,5.14c-2.97,0-28.62,19.55-42.65,32.57c-3.5,3.25-7.56,5.91-8.96,5.98
		c-1.43,0.03-0.35,1.78,2.38,3.84c6.19,4.69,5.21,4.83,12.35-1.99c3.29-3.19,10.43-9.24,15.88-13.47
		c19.31-15.08,29.56-24.98,28.16-27.22c-1.3-2.1,2.37-3.39,7.31-2.56c1.08,0.18,2.66-1.43,3.47-3.56c0.83-2.13,3.11-3.85,5.07-3.85
		c1.96,0,3.57-0.94,3.57-2.1c0-2.83,7.8-10.92,16.54-17.14c3.96-2.83,10.15-7.76,13.71-10.95c3.57-3.18,12.31-10.7,19.42-16.68
		c34.57-28.96,68.04-57.79,77.28-66.5c5.67-5.35,20.19-17.11,32.33-26.17c31.83-23.82,53.06-44.53,47.71-46.56
		c-7.03-2.69-7.94-2.02-48.45,35.4c-7.24,6.72-14.35,12.18-15.74,12.18c-2.84,0-3.61,0.66-26.37,22.32
		C1386.17,665.19,1373.47,676.31,1366.58,681.74z"/>
	<path class="st1" d="M1206.88,703.95c1.23,0,2.24-1.26,2.24-2.77c0-1.5,5.45-9.65,12.17-18.12c6.69-8.43,17.39-23.23,23.72-32.81
		c6.33-9.62,21.34-31.56,33.34-48.74c32.78-46.94,39.74-58.91,36.31-62.33c-1.58-1.58-3.25-2.38-3.71-1.79
		c-1.67,2.2-19.24,27.04-28.89,40.86c-9.87,14.1-25.12,36.91-43.31,64.78c-5.28,8.09-10.67,14.73-11.93,14.73
		c-1.3,0-2.35,1.19-2.35,2.62c0,1.43-6.05,11.29-13.43,21.93c-7.42,10.6-14.62,21.2-16.06,23.51c-2.9,4.83-3.25,5.32-15.47,21.73
		c-4.93,6.64-9.62,15.88-10.39,20.53l-1.43,8.43l9.1-10.25c4.96-5.67,13.29-17.5,18.47-26.31
		C1200.41,711.16,1205.65,703.95,1206.88,703.95z"/>
	<path class="st1" d="M1451.48,726.65c-2.84,1.33-9.34,5.32-14.49,8.85c-5.14,3.54-11.89,7.21-15,8.22
		c-5.63,1.79-11.83,6.13-20.92,14.73c-2.59,2.48-5.98,4.48-7.49,4.48c-3.26,0-24.56,11.93-31.87,17.84
		c-2.83,2.27-10.32,6.93-16.68,10.29c-6.33,3.39-14.42,8.11-17.95,10.46c-3.54,2.37-15.36,9.31-26.28,15.39
		c-10.94,6.09-19.9,12-19.9,13.19c0,1.16-2,2.1-4.48,2.1c-2.45,0.04-7.94,2.42-12.18,5.28c-4.23,2.9-10,6.37-12.83,7.73
		c-2.8,1.33-8.57,4.73-12.81,7.52c-4.24,2.77-9.16,5.78-10.92,6.65c-1.75,0.88-3.22,3.19-3.22,5.15c0,1.95,1.19,3.56,2.62,3.56
		c2.52,0,62.76-33.58,67.94-37.85c1.4-1.19,11.79-7.21,23.09-13.41c24.17-13.29,80.84-48.16,93.47-57.58
		c4.83-3.61,10.25-6.58,12-6.58c3.78,0,33.48-17.03,40.72-23.36c2.8-2.48,10.32-6.86,16.66-9.76c6.36-2.9,23.09-12.81,37.18-21.97
		c14.13-9.16,26.8-17.18,28.23-17.77c1.47-0.64,1.01-2.2-1.05-3.65c-3.91-2.72-30.19,9.06-36.14,16.24
		c-1.75,2.1-12,8.74-22.77,14.72c-10.74,5.98-21.87,12.31-24.7,14C1458.93,722.84,1454.31,725.33,1451.48,726.65z"/>
	<path class="st1" d="M1229.62,587.18c0,1.67-4.58,9.62-10.18,17.6c-5.6,7.97-9.55,14.52-8.81,14.52c0.77,0-0.88,3.18-3.6,7.07
		c-2.77,3.89-8.18,12.84-12.04,19.87c-3.89,7.07-10.77,18.61-15.36,25.64c-7.27,11.23-13.93,22.77-23.09,40.09
		c-1.36,2.65-3.39,4.79-4.48,4.79c-1.08,0-1.96,2.9-1.96,6.43c0,3.78,1.47,6.4,3.61,6.4c4.26,0,14.3-15.6,31.31-48.73
		c6.89-13.4,13.18-24.94,13.99-25.64c0.77-0.71,5.84-9.38,11.23-19.25c5.43-9.86,11.27-19.69,12.98-21.79
		c1.72-2.14,8.79-14.84,15.64-28.24c6.9-13.4,13.26-24.94,14.17-25.64c0.88-0.7,8.61-14.55,17.14-30.79
		c8.54-16.19,18.44-34.67,21.98-41.03c16.23-29.07,25.64-48.62,24.13-50.12c-2.9-2.9-5.63,0.48-14.77,18.47
		c-4.86,9.65-9.55,18.16-10.39,18.86c-0.87,0.7-6.54,11.09-12.63,23.09c-6.09,11.96-13.08,24.66-15.49,28.19
		c-2.45,3.54-8.71,14.97-13.93,25.4c-5.18,10.46-11.72,21.87-14.45,25.36C1231.86,581.23,1229.62,585.47,1229.62,587.18z"/>
	<path class="st1" d="M1240.67,827.64c-5.1,2.73-10.81,6.51-12.69,8.4c-1.86,1.85-4.76,3.85-6.48,4.41
		c-1.68,0.56-2.2,2.38-1.15,4.06c1.01,1.68,2.48,3.08,3.25,3.08c3.74,0,16.17-11.05,17.63-15.64c1.08-3.43,3.08-4.72,5.67-3.74
		c4.72,1.82,13.51-5.39,13.51-11.02c0-3.04,0.7-3.29,3.01-0.95c2.3,2.31,5.56,0.91,13.88-5.91c5.98-4.9,12.14-8.92,13.68-8.92
		c1.5,0,2.76-0.98,2.76-2.13c0-1.19,7.8-7.14,17.32-13.23c9.51-6.09,17.88-11.86,18.57-12.88c1.26-1.78,15.36-11.64,59.02-41.42
		c12-8.19,27.57-18.99,34.63-24.06c7.03-5.04,16.86-11.82,21.83-15.08c12.21-8.04,16.83-13.85,13.57-17.14
		c-2.79-2.76-21.31,4.55-21.31,8.44c0,1.15-1.43,2.13-3.21,2.13c-1.75,0.04-5.78,2.73-8.88,6.05c-3.12,3.29-15.57,12.7-27.67,20.92
		c-12.11,8.22-24.7,17.62-27.99,20.92c-7.34,7.34-23.93,18.74-27.25,18.74c-1.36,0-2.45,0.91-2.45,2.03c0,1.12-5.78,5.45-12.77,9.62
		c-7.03,4.16-12.81,9.03-12.84,10.81c-0.04,1.76-1.89,3.19-4.16,3.19c-4.68,0-20.57,12.63-19.66,15.6c0.31,1.08-2.8,2.73-6.9,3.6
		c-4.09,0.91-8.67,3.15-10.21,4.97c-1.5,1.82-7.91,6.57-14.24,10.57c-6.3,3.99-10.95,7.8-10.32,8.43
		C1249.49,822.12,1245.82,824.88,1240.67,827.64z"/>
	<path class="st1" d="M1133.95,590.46c-1.89,3.89-5.53,13.96-8.16,22.42c-2.59,8.46-6.92,20.5-9.65,26.76
		c-2.72,6.27-5.6,15.22-6.37,19.91c-0.83,5.32-0.31,8.46,1.47,8.46c4.03,0,11.72-16.06,17.81-37.18
		c5.49-19.07,25.01-76.05,28.96-84.62c1.3-2.84,5.78-15.54,9.9-28.24c4.13-12.7,12.64-37.53,18.82-55.17
		c11.16-31.62,18.79-58.38,17.77-62.16c-0.28-1.05,0.64-1.93,2.03-1.93c1.43,0,2.59-1.71,2.59-3.85c0-7.49-7.31-3.82-8.96,4.48
		c-0.88,4.62-2.66,10.68-3.95,13.47c-1.3,2.84-5.92,16.09-10.25,29.53c-4.37,13.4-8.96,26.66-10.22,29.49
		c-1.22,2.8-6.85,18.96-12.45,35.89c-5.63,16.93-12.7,37.11-15.74,44.88c-5.25,13.4-9.8,26.83-10.04,29.55
		C1137.44,582.87,1135.83,586.61,1133.95,590.46z"/>
</g>
</svg>
